<?xml version="1.0" encoding="UTF-8" standalone="no"?><svg xmlns="http://www.w3.org/2000/svg" xmlns:xlink="http://www.w3.org/1999/xlink" contentScriptType="application/ecmascript" contentStyleType="text/css" height="48px" preserveAspectRatio="none" style="width:430px;height:48px;" version="1.1" viewBox="0 0 430 48" width="430px" zoomAndPan="magnify"><defs/><g><ellipse cx="158.9914" cy="22.601" fill="#FEFECE" rx="31.9914" ry="14.601" style="stroke: #A80036; stroke-width: 1.5;"/><text fill="#000000" font-family="Roboto Condensed" font-size="14" lengthAdjust="spacingAndGlyphs" textLength="41" x="138.4914" y="27.3041">Node A</text><path d="M6,9.5 L6,35.9063 A0,0 0 0 0 6,35.9063 L92,35.9063 A0,0 0 0 0 92,35.9063 L92,27.5 L126.74,22.5 L92,19.5 L92,19.5 L82,9.5 L6,9.5 A0,0 0 0 0 6,9.5 " fill="#FBFB77" style="stroke: #A80036; stroke-width: 1.0;"/><path d="M82,9.5 L82,19.5 L92,19.5 L82,9.5 " fill="#FBFB77" style="stroke: #A80036; stroke-width: 1.0;"/><text fill="#000000" font-family="Roboto Condensed" font-size="14" lengthAdjust="spacingAndGlyphs" textLength="65" x="12" y="27.4883">Note on left</text><ellipse cx="257.9914" cy="22.601" fill="#FEFECE" rx="31.9914" ry="14.601" style="stroke: #A80036; stroke-width: 1.5;"/><text fill="#000000" font-family="Roboto Condensed" font-size="14" lengthAdjust="spacingAndGlyphs" textLength="41" x="237.4914" y="27.3041">Node B</text><path d="M325.5,9.5 L325.5,18.5 L290.06,22.5 L325.5,26.5 L325.5,35.9063 A0,0 0 0 0 325.5,35.9063 L418.5,35.9063 A0,0 0 0 0 418.5,35.9063 L418.5,19.5 L408.5,9.5 L325.5,9.5 A0,0 0 0 0 325.5,9.5 " fill="#FBFB77" style="stroke: #A80036; stroke-width: 1.0;"/><path d="M408.5,9.5 L408.5,19.5 L418.5,19.5 L408.5,9.5 " fill="#FBFB77" style="stroke: #A80036; stroke-width: 1.0;"/><text fill="#000000" font-family="Roboto Condensed" font-size="14" lengthAdjust="spacingAndGlyphs" textLength="72" x="331.5" y="27.4883">Note on right</text><!--MD5=[081c5398f3de3abf62153774bd1bcf59]
@startuml
!include ../../styles/plantuml-style

(Node A)
note left : Note on left

(Node B)
note right : Note on right
@enduml

@startuml
skinparam defaultFontName "Roboto Condensed"
skinparam defaultFontSize 14
skinparam shadowing false

(Node A)
note left : Note on left

(Node B)
note right : Note on right
@enduml

PlantUML version 1.2020.10(Sun May 17 05:35:57 EDT 2020)
(GPL source distribution)
Java Runtime: Java(TM) SE Runtime Environment
JVM: Java HotSpot(TM) 64-Bit Server VM
Java Version: 1.8.0_231-b11
Operating System: Mac OS X
Default Encoding: UTF-8
Language: en
Country: CA
--></g></svg>