<?xml version="1.0" encoding="UTF-8" standalone="no"?><svg xmlns="http://www.w3.org/2000/svg" xmlns:xlink="http://www.w3.org/1999/xlink" contentScriptType="application/ecmascript" contentStyleType="text/css" height="189px" preserveAspectRatio="none" style="width:588px;height:189px;" version="1.1" viewBox="0 0 588 189" width="588px" zoomAndPan="magnify"><defs/><g><line style="stroke: #A80036; stroke-width: 1.0; stroke-dasharray: 5.0,5.0;" x1="19" x2="19" y1="82.4063" y2="102.4063"/><line style="stroke: #A80036; stroke-width: 1.0; stroke-dasharray: 5.0,5.0;" x1="121" x2="121" y1="82.4063" y2="102.4063"/><line style="stroke: #A80036; stroke-width: 1.0; stroke-dasharray: 5.0,5.0;" x1="229" x2="229" y1="82.4063" y2="102.4063"/><line style="stroke: #A80036; stroke-width: 1.0; stroke-dasharray: 5.0,5.0;" x1="286" x2="286" y1="82.4063" y2="102.4063"/><line style="stroke: #A80036; stroke-width: 1.0; stroke-dasharray: 5.0,5.0;" x1="349" x2="349" y1="82.4063" y2="102.4063"/><line style="stroke: #A80036; stroke-width: 1.0; stroke-dasharray: 5.0,5.0;" x1="400" x2="400" y1="82.4063" y2="102.4063"/><line style="stroke: #A80036; stroke-width: 1.0; stroke-dasharray: 5.0,5.0;" x1="458" x2="458" y1="82.4063" y2="102.4063"/><line style="stroke: #A80036; stroke-width: 1.0; stroke-dasharray: 5.0,5.0;" x1="537" x2="537" y1="82.4063" y2="102.4063"/><rect fill="#FEFECE" height="30.4063" style="stroke: #A80036; stroke-width: 1.5;" width="22" x="8" y="51"/><text fill="#000000" font-family="Roboto Condensed" font-size="14" lengthAdjust="spacingAndGlyphs" textLength="8" x="15" y="70.9883">A</text><rect fill="#FEFECE" height="30.4063" style="stroke: #A80036; stroke-width: 1.5;" width="22" x="8" y="101.4063"/><text fill="#000000" font-family="Roboto Condensed" font-size="14" lengthAdjust="spacingAndGlyphs" textLength="8" x="15" y="121.3945">A</text><rect fill="#FEFECE" height="30.4063" style="stroke: #A80036; stroke-width: 1.5;" width="162" x="40" y="51"/><text fill="#000000" font-family="Roboto Condensed" font-size="14" lengthAdjust="spacingAndGlyphs" textLength="148" x="47" y="70.9883">Participant with long name</text><rect fill="#FEFECE" height="30.4063" style="stroke: #A80036; stroke-width: 1.5;" width="162" x="40" y="101.4063"/><text fill="#000000" font-family="Roboto Condensed" font-size="14" lengthAdjust="spacingAndGlyphs" textLength="148" x="47" y="121.3945">Participant with long name</text><text fill="#000000" font-family="Roboto Condensed" font-size="14" lengthAdjust="spacingAndGlyphs" textLength="29" x="212" y="78.9883">Actor</text><ellipse cx="229.5" cy="13" fill="#FF0000" rx="8" ry="8" style="stroke: #A80036; stroke-width: 2.0;"/><path d="M229.5,21 L229.5,48 M216.5,29 L242.5,29 M229.5,48 L216.5,63 M229.5,48 L242.5,63 " fill="none" style="stroke: #A80036; stroke-width: 2.0;"/><text fill="#000000" font-family="Roboto Condensed" font-size="14" lengthAdjust="spacingAndGlyphs" textLength="29" x="212" y="114.3945">Actor</text><ellipse cx="229.5" cy="127.8125" fill="#FF0000" rx="8" ry="8" style="stroke: #A80036; stroke-width: 2.0;"/><path d="M229.5,135.8125 L229.5,162.8125 M216.5,143.8125 L242.5,143.8125 M229.5,162.8125 L216.5,177.8125 M229.5,162.8125 L242.5,177.8125 " fill="none" style="stroke: #A80036; stroke-width: 2.0;"/><text fill="#000000" font-family="Roboto Condensed" font-size="14" lengthAdjust="spacingAndGlyphs" textLength="53" x="257" y="78.9883">Boundary</text><path d="M266,38 L266,62 M266,50 L283,50 " fill="none" style="stroke: #A80036; stroke-width: 2.0;"/><ellipse cx="295" cy="50" fill="#FFFFFF" rx="12" ry="12" style="stroke: #A80036; stroke-width: 2.0;"/><text fill="#000000" font-family="Roboto Condensed" font-size="14" lengthAdjust="spacingAndGlyphs" textLength="53" x="257" y="114.3945">Boundary</text><path d="M266,121.8125 L266,145.8125 M266,133.8125 L283,133.8125 " fill="none" style="stroke: #A80036; stroke-width: 2.0;"/><ellipse cx="295" cy="133.8125" fill="#FFFFFF" rx="12" ry="12" style="stroke: #A80036; stroke-width: 2.0;"/><text fill="#000000" font-family="Roboto Condensed" font-size="14" lengthAdjust="spacingAndGlyphs" textLength="40" x="326" y="78.9883">Control</text><ellipse cx="349" cy="50" fill="#FEFECE" rx="12" ry="12" style="stroke: #A80036; stroke-width: 2.0;"/><polygon fill="#A80036" points="345,38,351,33,349,38,351,43,345,38" style="stroke: #A80036; stroke-width: 1.0;"/><text fill="#000000" font-family="Roboto Condensed" font-size="14" lengthAdjust="spacingAndGlyphs" textLength="40" x="326" y="114.3945">Control</text><ellipse cx="349" cy="133.8125" fill="#FEFECE" rx="12" ry="12" style="stroke: #A80036; stroke-width: 2.0;"/><polygon fill="#A80036" points="345,121.8125,351,116.8125,349,121.8125,351,126.8125,345,121.8125" style="stroke: #A80036; stroke-width: 1.0;"/><text fill="#000000" font-family="Roboto Condensed" font-size="14" lengthAdjust="spacingAndGlyphs" textLength="31" x="382" y="78.9883">Entity</text><ellipse cx="400.5" cy="50" fill="#FEFECE" rx="12" ry="12" style="stroke: #A80036; stroke-width: 2.0;"/><line style="stroke: #A80036; stroke-width: 2.0;" x1="388.5" x2="412.5" y1="64" y2="64"/><text fill="#000000" font-family="Roboto Condensed" font-size="14" lengthAdjust="spacingAndGlyphs" textLength="31" x="382" y="114.3945">Entity</text><ellipse cx="400.5" cy="133.8125" fill="#FEFECE" rx="12" ry="12" style="stroke: #A80036; stroke-width: 2.0;"/><line style="stroke: #A80036; stroke-width: 2.0;" x1="388.5" x2="412.5" y1="147.8125" y2="147.8125"/><text fill="#000000" font-family="Roboto Condensed" font-size="14" lengthAdjust="spacingAndGlyphs" textLength="53" x="429" y="78.9883">Database</text><path d="M440.5,30 C440.5,20 458.5,20 458.5,20 C458.5,20 476.5,20 476.5,30 L476.5,56 C476.5,66 458.5,66 458.5,66 C458.5,66 440.5,66 440.5,56 L440.5,30 " fill="#FEFECE" style="stroke: #000000; stroke-width: 1.5;"/><path d="M440.5,30 C440.5,40 458.5,40 458.5,40 C458.5,40 476.5,40 476.5,30 " fill="none" style="stroke: #000000; stroke-width: 1.5;"/><text fill="#000000" font-family="Roboto Condensed" font-size="14" lengthAdjust="spacingAndGlyphs" textLength="53" x="429" y="114.3945">Database</text><path d="M440.5,127.8125 C440.5,117.8125 458.5,117.8125 458.5,117.8125 C458.5,117.8125 476.5,117.8125 476.5,127.8125 L476.5,153.8125 C476.5,163.8125 458.5,163.8125 458.5,163.8125 C458.5,163.8125 440.5,163.8125 440.5,153.8125 L440.5,127.8125 " fill="#FEFECE" style="stroke: #000000; stroke-width: 1.5;"/><path d="M440.5,127.8125 C440.5,137.8125 458.5,137.8125 458.5,137.8125 C458.5,137.8125 476.5,137.8125 476.5,127.8125 " fill="none" style="stroke: #000000; stroke-width: 1.5;"/><rect fill="#FEFECE" height="30.4063" style="stroke: #A80036; stroke-width: 1.5;" width="75" x="502" y="47"/><rect fill="#FEFECE" height="30.4063" style="stroke: #A80036; stroke-width: 1.5;" width="75" x="498" y="51"/><text fill="#000000" font-family="Roboto Condensed" font-size="14" lengthAdjust="spacingAndGlyphs" textLength="61" x="505" y="70.9883">Collections</text><rect fill="#FEFECE" height="30.4063" style="stroke: #A80036; stroke-width: 1.5;" width="75" x="502" y="101.4063"/><rect fill="#FEFECE" height="30.4063" style="stroke: #A80036; stroke-width: 1.5;" width="75" x="498" y="105.4063"/><text fill="#000000" font-family="Roboto Condensed" font-size="14" lengthAdjust="spacingAndGlyphs" textLength="61" x="505" y="125.3945">Collections</text><!--MD5=[2139c5ff4a9acecb307d05658f0482e8]
@startuml
!include ../../styles/plantuml-style

participant A
participant "Participant with long name" as B
actor Actor #red
boundary Boundary #FFFFFF
control Control
entity Entity
database Database
collections Collections
@enduml

@startuml
skinparam defaultFontName "Roboto Condensed"
skinparam defaultFontSize 14
skinparam shadowing false

participant A
participant "Participant with long name" as B
actor Actor #red
boundary Boundary #FFFFFF
control Control
entity Entity
database Database
collections Collections
@enduml

PlantUML version 1.2020.10(Sun May 17 05:35:57 EDT 2020)
(GPL source distribution)
Java Runtime: Java(TM) SE Runtime Environment
JVM: Java HotSpot(TM) 64-Bit Server VM
Java Version: 1.8.0_231-b11
Operating System: Mac OS X
Default Encoding: UTF-8
Language: en
Country: CA
--></g></svg>