<?xml version="1.0" encoding="UTF-8" standalone="no"?><svg xmlns="http://www.w3.org/2000/svg" xmlns:xlink="http://www.w3.org/1999/xlink" contentScriptType="application/ecmascript" contentStyleType="text/css" height="311px" preserveAspectRatio="none" style="width:149px;height:311px;" version="1.1" viewBox="0 0 149 311" width="149px" zoomAndPan="magnify"><defs/><g><line style="stroke: #A80036; stroke-width: 1.0; stroke-dasharray: 5.0,5.0;" x1="23" x2="23" y1="82.4063" y2="224.0313"/><line style="stroke: #A80036; stroke-width: 1.0; stroke-dasharray: 5.0,5.0;" x1="111.5" x2="111.5" y1="82.4063" y2="224.0313"/><text fill="#000000" font-family="Roboto Condensed" font-size="14" lengthAdjust="spacingAndGlyphs" textLength="25" x="8" y="78.9883">User</text><ellipse cx="23.5" cy="13" fill="#FEFECE" rx="8" ry="8" style="stroke: #A80036; stroke-width: 2.0;"/><path d="M23.5,21 L23.5,48 M10.5,29 L36.5,29 M23.5,48 L10.5,63 M23.5,48 L36.5,63 " fill="none" style="stroke: #A80036; stroke-width: 2.0;"/><text fill="#000000" font-family="Roboto Condensed" font-size="14" lengthAdjust="spacingAndGlyphs" textLength="25" x="8" y="236.0195">User</text><ellipse cx="23.5" cy="249.4375" fill="#FEFECE" rx="8" ry="8" style="stroke: #A80036; stroke-width: 2.0;"/><path d="M23.5,257.4375 L23.5,284.4375 M10.5,265.4375 L36.5,265.4375 M23.5,284.4375 L10.5,299.4375 M23.5,284.4375 L36.5,299.4375 " fill="none" style="stroke: #A80036; stroke-width: 2.0;"/><rect fill="#FEFECE" height="30.4063" style="stroke: #A80036; stroke-width: 1.5;" width="54" x="84.5" y="51"/><text fill="#000000" font-family="Roboto Condensed" font-size="14" lengthAdjust="spacingAndGlyphs" textLength="40" x="91.5" y="70.9883">Service</text><rect fill="#FEFECE" height="30.4063" style="stroke: #A80036; stroke-width: 1.5;" width="54" x="84.5" y="223.0313"/><text fill="#000000" font-family="Roboto Condensed" font-size="14" lengthAdjust="spacingAndGlyphs" textLength="40" x="91.5" y="243.0195">Service</text><polygon fill="#A80036" points="99.5,110.8125,109.5,114.8125,99.5,118.8125,103.5,114.8125" style="stroke: #A80036; stroke-width: 1.0;"/><line style="stroke: #A80036; stroke-width: 1.0;" x1="23.5" x2="105.5" y1="114.8125" y2="114.8125"/><text fill="#000000" font-family="Roboto Condensed" font-size="14" lengthAdjust="spacingAndGlyphs" textLength="55" x="30.5" y="109.3945">Request 1</text><polygon fill="#A80036" points="34.5,141.2188,24.5,145.2188,34.5,149.2188,30.5,145.2188" style="stroke: #A80036; stroke-width: 1.0;"/><line style="stroke: #A80036; stroke-width: 1.0;" x1="28.5" x2="110.5" y1="145.2188" y2="145.2188"/><text fill="#000000" font-family="Roboto Condensed" font-size="14" lengthAdjust="spacingAndGlyphs" textLength="64" x="40.5" y="139.8008">Response 1</text><polygon fill="#A80036" points="99.5,171.625,109.5,175.625,99.5,179.625,103.5,175.625" style="stroke: #A80036; stroke-width: 1.0;"/><line style="stroke: #A80036; stroke-width: 1.0; stroke-dasharray: 2.0,2.0;" x1="23.5" x2="105.5" y1="175.625" y2="175.625"/><text fill="#000000" font-family="Roboto Condensed" font-size="14" lengthAdjust="spacingAndGlyphs" textLength="55" x="30.5" y="170.207">Request 2</text><polygon fill="#A80036" points="34.5,202.0313,24.5,206.0313,34.5,210.0313,30.5,206.0313" style="stroke: #A80036; stroke-width: 1.0;"/><line style="stroke: #A80036; stroke-width: 1.0; stroke-dasharray: 2.0,2.0;" x1="28.5" x2="110.5" y1="206.0313" y2="206.0313"/><text fill="#000000" font-family="Roboto Condensed" font-size="14" lengthAdjust="spacingAndGlyphs" textLength="64" x="40.5" y="200.6133">Response 2</text><!--MD5=[4a96b106f783e4c7fa982240fdbe252c]
@startuml
!include ../../styles/plantuml-style

actor User
participant Service

User -> Service : Request 1
User <- Service : Response 1
User - -> Service : Request 2
User <- - Service : Response 2
@enduml

@startuml
skinparam defaultFontName "Roboto Condensed"
skinparam defaultFontSize 14
skinparam shadowing false

actor User
participant Service

User -> Service : Request 1
User <- Service : Response 1
User - -> Service : Request 2
User <- - Service : Response 2
@enduml

PlantUML version 1.2020.10(Sun May 17 05:35:57 EDT 2020)
(GPL source distribution)
Java Runtime: Java(TM) SE Runtime Environment
JVM: Java HotSpot(TM) 64-Bit Server VM
Java Version: 1.8.0_231-b11
Operating System: Mac OS X
Default Encoding: UTF-8
Language: en
Country: CA
--></g></svg>