<?xml version="1.0" encoding="utf-8"?>
<!-- Generator: Adobe Illustrator 16.0.0, SVG Export Plug-In . SVG Version: 6.00 Build 0)  -->
<!DOCTYPE svg PUBLIC "-//W3C//DTD SVG 1.1//EN" "http://www.w3.org/Graphics/SVG/1.1/DTD/svg11.dtd">
<svg version="1.1" id="图层_1" xmlns="http://www.w3.org/2000/svg" xmlns:xlink="http://www.w3.org/1999/xlink" x="0px" y="0px"
	 width="1346.048px" height="377.981px" viewBox="0 0 1346.048 377.981" enable-background="new 0 0 1346.048 377.981"
	 xml:space="preserve">
<rect x="36.739" y="95.899" fill="#F2A1AA" stroke="#898989" stroke-miterlimit="10" width="150" height="240.5"/>
<g>
	<path fill="#3E3A39" d="M74.787,146.229h6.428v2.341h-9.128v-12.928h2.701V146.229z"/>
	<path fill="#3E3A39" d="M87.225,148.822c-2.575,0-4.897-1.584-4.897-5.042s2.323-5.042,4.897-5.042s4.897,1.584,4.897,5.042
		S89.8,148.822,87.225,148.822z M87.225,140.864c-1.945,0-2.305,1.692-2.305,2.917c0,1.225,0.36,2.917,2.305,2.917
		c1.944,0,2.305-1.692,2.305-2.917C89.53,142.557,89.169,140.864,87.225,140.864z"/>
	<path fill="#3E3A39" d="M102.13,145.077c-0.09,0.99-0.864,3.745-4.375,3.745c-3.601,0-4.429-2.755-4.429-4.771
		c0-3.097,1.35-5.312,4.591-5.312c1.512,0,3.997,0.685,4.231,3.673h-2.557c-0.108-0.63-0.504-1.621-1.674-1.548
		c-1.584,0-1.999,1.584-1.999,2.772c0,1.044,0.036,3.115,1.944,3.115c1.278,0,1.71-1.225,1.71-1.675H102.13z"/>
	<path fill="#3E3A39" d="M111.652,146.698c0,1.134,0.252,1.386,0.558,1.495v0.378h-2.719c-0.144-0.45-0.18-0.594-0.234-1.134
		c-0.576,0.594-1.387,1.386-3.097,1.386c-1.44,0-2.917-0.81-2.917-2.791c0-1.873,1.188-2.827,2.791-3.061l2.269-0.342
		c0.396-0.054,0.882-0.216,0.882-0.756c0-1.062-1.008-1.116-1.656-1.116c-1.261,0-1.477,0.774-1.549,1.333h-2.431
		c0.288-2.935,2.323-3.349,4.286-3.349c1.35,0,3.817,0.414,3.817,2.773V146.698z M109.185,143.907
		c-0.252,0.198-0.666,0.36-1.71,0.522c-0.937,0.162-1.71,0.396-1.71,1.44c0,0.882,0.684,1.152,1.17,1.152
		c1.116,0,2.25-0.72,2.25-1.891V143.907z"/>
	<path fill="#3E3A39" d="M116.492,148.57h-2.521v-12.928h2.521V148.57z"/>
	<path fill="#3E3A39" d="M132.154,145.077c-0.09,0.99-0.864,3.745-4.375,3.745c-3.601,0-4.429-2.755-4.429-4.771
		c0-3.097,1.35-5.312,4.591-5.312c1.512,0,3.997,0.685,4.231,3.673h-2.557c-0.108-0.63-0.504-1.621-1.674-1.548
		c-1.584,0-1.999,1.584-1.999,2.772c0,1.044,0.036,3.115,1.944,3.115c1.278,0,1.71-1.225,1.71-1.675H132.154z"/>
	<path fill="#3E3A39" d="M141.676,146.698c0,1.134,0.252,1.386,0.558,1.495v0.378h-2.719c-0.144-0.45-0.18-0.594-0.234-1.134
		c-0.576,0.594-1.387,1.386-3.097,1.386c-1.44,0-2.917-0.81-2.917-2.791c0-1.873,1.188-2.827,2.791-3.061l2.269-0.342
		c0.396-0.054,0.882-0.216,0.882-0.756c0-1.062-1.008-1.116-1.656-1.116c-1.261,0-1.477,0.774-1.549,1.333h-2.431
		c0.288-2.935,2.323-3.349,4.285-3.349c1.351,0,3.817,0.414,3.817,2.773V146.698z M139.209,143.907
		c-0.252,0.198-0.666,0.36-1.71,0.522c-0.936,0.162-1.71,0.396-1.71,1.44c0,0.882,0.684,1.152,1.17,1.152
		c1.116,0,2.25-0.72,2.25-1.891V143.907z"/>
	<path fill="#3E3A39" d="M146.516,148.57h-2.521v-12.928h2.521V148.57z"/>
	<path fill="#3E3A39" d="M151.52,148.57h-2.521v-12.928h2.521V148.57z"/>
</g>
<g>
	<path fill="#3E3A39" d="M63.798,288.426h6.428v2.342h-9.128V277.84h2.701V288.426z"/>
	<path fill="#3E3A39" d="M76.236,291.02c-2.575,0-4.897-1.585-4.897-5.042s2.323-5.042,4.897-5.042s4.897,1.585,4.897,5.042
		S78.811,291.02,76.236,291.02z M76.236,283.061c-1.945,0-2.305,1.693-2.305,2.917c0,1.225,0.36,2.917,2.305,2.917
		c1.944,0,2.305-1.692,2.305-2.917C78.541,284.754,78.181,283.061,76.236,283.061z"/>
	<path fill="#3E3A39" d="M91.141,287.274c-0.09,0.99-0.864,3.746-4.375,3.746c-3.601,0-4.429-2.756-4.429-4.771
		c0-3.098,1.35-5.313,4.591-5.313c1.512,0,3.997,0.686,4.231,3.674h-2.557c-0.108-0.631-0.504-1.621-1.674-1.549
		c-1.584,0-1.999,1.584-1.999,2.773c0,1.044,0.036,3.115,1.944,3.115c1.278,0,1.71-1.225,1.71-1.676H91.141z"/>
	<path fill="#3E3A39" d="M100.663,288.895c0,1.135,0.252,1.387,0.558,1.494v0.379h-2.719c-0.144-0.451-0.18-0.595-0.234-1.135
		c-0.576,0.594-1.387,1.387-3.097,1.387c-1.44,0-2.917-0.811-2.917-2.791c0-1.873,1.188-2.827,2.791-3.061l2.269-0.343
		c0.396-0.054,0.882-0.216,0.882-0.757c0-1.062-1.008-1.115-1.656-1.115c-1.261,0-1.477,0.773-1.549,1.332h-2.431
		c0.288-2.936,2.323-3.35,4.286-3.35c1.35,0,3.817,0.414,3.817,2.773V288.895z M98.196,286.104c-0.252,0.198-0.666,0.36-1.71,0.522
		c-0.937,0.162-1.71,0.396-1.71,1.44c0,0.883,0.684,1.152,1.17,1.152c1.116,0,2.25-0.721,2.25-1.891V286.104z"/>
	<path fill="#3E3A39" d="M105.503,290.768h-2.521V277.84h2.521V290.768z"/>
	<path fill="#3E3A39" d="M112.9,281.188h2.413v1.657h0.036c0.522-0.972,1.098-1.909,2.629-1.909c0.162,0,0.324,0.019,0.486,0.037
		v2.557c-0.216-0.037-0.486-0.037-0.72-0.037c-1.962,0-2.322,1.225-2.322,2.287v4.988H112.9V281.188z"/>
	<path fill="#3E3A39" d="M128.149,287.959c-0.667,2.305-2.575,3.061-4.213,3.061c-2.701,0-4.771-1.297-4.771-5.24
		c0-1.152,0.396-4.844,4.591-4.844c1.891,0,4.501,0.9,4.501,5.276v0.45h-6.572c0.072,0.721,0.216,2.34,2.25,2.34
		c0.702,0,1.422-0.359,1.621-1.043H128.149z M125.664,285.024c-0.144-1.549-1.134-2.017-1.945-2.017
		c-1.188,0-1.818,0.757-1.962,2.017H125.664z"/>
	<path fill="#3E3A39" d="M132.755,281.188h1.566v1.801h-1.566v5.204c0,0.558,0.018,0.774,1.044,0.774
		c0.162,0,0.342-0.018,0.522-0.036v1.909c-0.396,0.018-0.792,0.035-1.188,0.035h-0.324c-2.179,0-2.575-0.828-2.575-2.07v-5.816
		h-1.296v-1.801h1.296v-2.592h2.521V281.188z"/>
	<path fill="#3E3A39" d="M144.565,290.768h-2.413v-1.352h-0.036c-0.576,1.027-1.584,1.604-2.917,1.604
		c-1.891,0-3.259-1.08-3.259-3.529v-6.303h2.521v5.942c0,1.477,0.864,1.765,1.639,1.765c0.828,0,1.944-0.469,1.944-2.179v-5.528
		h2.521V290.768z"/>
	<path fill="#3E3A39" d="M146.902,281.188h2.413v1.657h0.036c0.522-0.972,1.098-1.909,2.629-1.909c0.162,0,0.324,0.019,0.486,0.037
		v2.557c-0.216-0.037-0.486-0.037-0.72-0.037c-1.962,0-2.322,1.225-2.322,2.287v4.988h-2.521V281.188z"/>
	<path fill="#3E3A39" d="M162.583,290.768h-2.521v-5.816c0-0.702-0.036-1.891-1.638-1.891c-1.117,0-1.981,0.756-1.981,2.215v5.492
		h-2.521v-9.58h2.413v1.405h0.036c0.342-0.576,1.063-1.657,2.881-1.657c1.873,0,3.331,1.1,3.331,3.205V290.768z"/>
</g>
<g>
	<path fill="#3E3A39" d="M96.352,76.202c-0.216-0.774-0.63-2.232-2.863-2.232c-1.296,0-3.205,0.864-3.205,4.519
		c0,2.323,0.918,4.412,3.205,4.412c1.495,0,2.539-0.846,2.863-2.431h2.701c-0.54,2.809-2.376,4.771-5.617,4.771
		c-3.439,0-5.906-2.323-5.906-6.788c0-4.52,2.611-6.824,5.942-6.824c3.871,0,5.438,2.665,5.582,4.573H96.352z"/>
	<path fill="#3E3A39" d="M103.496,84.899h-2.521V71.971h2.521V84.899z"/>
	<path fill="#3E3A39" d="M108.5,74.186h-2.521v-2.34h2.521V74.186z M108.5,75.32v9.579h-2.521V75.32H108.5z"/>
	<path fill="#3E3A39" d="M119.14,82.09c-0.667,2.305-2.575,3.061-4.213,3.061c-2.701,0-4.771-1.296-4.771-5.239
		c0-1.152,0.396-4.844,4.591-4.844c1.891,0,4.501,0.9,4.501,5.276v0.45h-6.572c0.072,0.721,0.216,2.341,2.25,2.341
		c0.702,0,1.422-0.36,1.621-1.044H119.14z M116.655,79.155c-0.144-1.548-1.134-2.017-1.944-2.017c-1.188,0-1.819,0.756-1.963,2.017
		H116.655z"/>
	<path fill="#3E3A39" d="M129.58,84.899h-2.521v-5.816c0-0.702-0.036-1.89-1.638-1.89c-1.117,0-1.981,0.756-1.981,2.214v5.492
		h-2.521V75.32h2.413v1.405h0.036c0.342-0.576,1.063-1.657,2.881-1.657c1.873,0,3.331,1.099,3.331,3.205V84.899z"/>
	<path fill="#3E3A39" d="M134.744,75.32h1.566v1.801h-1.566v5.204c0,0.558,0.018,0.774,1.044,0.774c0.162,0,0.342-0.018,0.522-0.036
		v1.909c-0.396,0.018-0.792,0.036-1.188,0.036h-0.324c-2.179,0-2.575-0.828-2.575-2.07v-5.816h-1.296V75.32h1.296v-2.593h2.521
		V75.32z"/>
</g>
<rect x="232.98" y="95.899" fill="#FFEC93" stroke="#898989" stroke-miterlimit="10" width="150" height="240.5"/>
<g>
	<path fill="#3E3A39" d="M291.485,138.57h-2.701v-12.928h5.906c2.502,0,4.015,1.603,4.015,4.141c0,1.17-0.648,4.123-4.124,4.123
		h-3.097V138.57z M293.987,131.674c2.017,0,2.017-1.44,2.017-2.017c0-1.26-0.702-1.783-2.376-1.783h-2.143v3.799H293.987z"/>
	<path fill="#3E3A39" d="M307.812,136.698c0,1.134,0.252,1.386,0.558,1.495v0.378h-2.719c-0.144-0.45-0.18-0.594-0.234-1.134
		c-0.576,0.594-1.387,1.386-3.097,1.386c-1.44,0-2.917-0.81-2.917-2.791c0-1.873,1.188-2.827,2.791-3.061l2.269-0.342
		c0.396-0.054,0.882-0.216,0.882-0.756c0-1.062-1.008-1.116-1.656-1.116c-1.261,0-1.477,0.774-1.549,1.333h-2.431
		c0.288-2.935,2.323-3.349,4.285-3.349c1.351,0,3.817,0.414,3.817,2.773V136.698z M305.345,133.907
		c-0.252,0.198-0.666,0.36-1.71,0.522c-0.936,0.162-1.71,0.396-1.71,1.44c0,0.882,0.684,1.152,1.17,1.152
		c1.116,0,2.25-0.72,2.25-1.891V133.907z"/>
	<path fill="#3E3A39" d="M318.306,135.077c-0.09,0.99-0.864,3.745-4.375,3.745c-3.601,0-4.429-2.755-4.429-4.771
		c0-3.097,1.35-5.312,4.591-5.312c1.512,0,3.997,0.685,4.231,3.673h-2.557c-0.108-0.63-0.504-1.621-1.674-1.548
		c-1.584,0-1.999,1.584-1.999,2.772c0,1.044,0.036,3.115,1.944,3.115c1.278,0,1.71-1.225,1.71-1.675H318.306z"/>
	<path fill="#3E3A39" d="M322.301,138.57h-2.521v-12.928h2.521v6.986l3.169-3.637h3.097l-3.385,3.709l3.475,5.87h-3.025
		l-2.287-4.105l-1.044,1.081V138.57z"/>
	<path fill="#3E3A39" d="M276.042,158.298c0,1.134,0.252,1.386,0.558,1.495v0.378h-2.719c-0.144-0.45-0.18-0.594-0.234-1.134
		c-0.576,0.594-1.387,1.386-3.097,1.386c-1.44,0-2.917-0.81-2.917-2.791c0-1.873,1.188-2.827,2.791-3.061l2.269-0.342
		c0.396-0.054,0.882-0.216,0.882-0.756c0-1.063-1.008-1.117-1.656-1.117c-1.261,0-1.477,0.774-1.549,1.333h-2.431
		c0.288-2.935,2.323-3.349,4.285-3.349c1.351,0,3.817,0.414,3.817,2.773V158.298z M273.576,155.507
		c-0.252,0.198-0.666,0.36-1.71,0.522c-0.936,0.162-1.71,0.396-1.71,1.44c0,0.882,0.684,1.152,1.17,1.152
		c1.116,0,2.25-0.72,2.25-1.891V155.507z"/>
	<path fill="#3E3A39" d="M278.272,150.592h2.413v1.656h0.036c0.522-0.972,1.098-1.909,2.629-1.909c0.162,0,0.324,0.018,0.486,0.036
		v2.557c-0.216-0.036-0.486-0.036-0.72-0.036c-1.962,0-2.323,1.224-2.323,2.287v4.987h-2.521V150.592z"/>
	<path fill="#3E3A39" d="M293.809,150.592v9.074c0,1.657-0.126,4.412-4.843,4.412c-1.981,0-4.069-0.846-4.178-2.881h2.737
		c0.108,0.486,0.306,0.972,1.764,0.972c1.351,0,1.999-0.648,1.999-2.197v-1.152l-0.036-0.036c-0.415,0.738-1.044,1.44-2.557,1.44
		c-2.305,0-4.123-1.603-4.123-4.952c0-3.313,1.873-4.934,3.979-4.934c1.783,0,2.503,1.044,2.809,1.675h0.036v-1.422H293.809z
		 M289.163,158.1c1.71,0,2.143-1.458,2.143-2.772c0-1.549-0.756-2.809-2.161-2.809c-0.936,0-1.98,0.684-1.98,2.917
		C287.165,156.659,287.668,158.1,289.163,158.1z"/>
	<path fill="#3E3A39" d="M304.663,160.17h-2.413v-1.351h-0.036c-0.576,1.026-1.584,1.603-2.917,1.603
		c-1.891,0-3.259-1.08-3.259-3.529v-6.302h2.521v5.941c0,1.477,0.864,1.765,1.639,1.765c0.828,0,1.944-0.468,1.944-2.179v-5.527
		h2.521V160.17z"/>
	<path fill="#3E3A39" d="M320.72,160.17h-2.521v-5.816c0-1.422-0.63-1.891-1.368-1.891c-1.261,0-1.71,0.829-1.71,1.963v5.744h-2.521
		v-5.762c0-0.81,0-1.945-1.512-1.945c-1.188,0-1.567,0.829-1.567,1.873v5.833H307v-9.579h2.413v1.404h0.036
		c0.324-0.63,1.026-1.657,2.719-1.657c1.386,0,2.017,0.504,2.665,1.531c0.324-0.468,1.026-1.531,2.557-1.531
		c1.873,0,3.331,1.099,3.331,3.205V160.17z"/>
	<path fill="#3E3A39" d="M331.248,157.361c-0.667,2.305-2.575,3.061-4.213,3.061c-2.701,0-4.771-1.296-4.771-5.239
		c0-1.152,0.396-4.844,4.591-4.844c1.891,0,4.501,0.9,4.501,5.276v0.45h-6.572c0.072,0.72,0.216,2.34,2.25,2.34
		c0.702,0,1.422-0.36,1.621-1.044H331.248z M328.763,154.427c-0.144-1.548-1.134-2.017-1.944-2.017
		c-1.188,0-1.819,0.756-1.963,2.017H328.763z"/>
	<path fill="#3E3A39" d="M341.688,160.17h-2.521v-5.816c0-0.702-0.036-1.891-1.638-1.891c-1.117,0-1.981,0.756-1.981,2.215v5.492
		h-2.521v-9.579h2.413v1.404h0.036c0.342-0.576,1.062-1.657,2.881-1.657c1.873,0,3.331,1.099,3.331,3.205V160.17z"/>
	<path fill="#3E3A39" d="M346.852,150.592h1.566v1.8h-1.566v5.204c0,0.558,0.018,0.774,1.044,0.774c0.162,0,0.342-0.018,0.522-0.036
		v1.908c-0.396,0.018-0.792,0.036-1.188,0.036h-0.324c-2.179,0-2.575-0.828-2.575-2.07v-5.816h-1.296v-1.8h1.296v-2.593h2.521
		V150.592z"/>
</g>
<g>
	<path fill="#3E3A39" d="M260.365,286.249c0,3.402-2.053,4.861-5.312,4.861c-1.188,0-2.953-0.288-4.105-1.566
		c-0.702-0.793-0.972-1.837-1.008-3.133v-8.57h2.755v8.391c0,1.8,1.044,2.592,2.305,2.592c1.854,0,2.611-0.9,2.611-2.467v-8.516
		h2.755V286.249z"/>
	<path fill="#3E3A39" d="M271.47,290.768h-2.521v-5.816c0-0.702-0.036-1.891-1.638-1.891c-1.117,0-1.981,0.756-1.981,2.215v5.492
		h-2.521v-9.58h2.413v1.405h0.036c0.342-0.576,1.063-1.657,2.881-1.657c1.873,0,3.331,1.1,3.331,3.205V290.768z"/>
	<path fill="#3E3A39" d="M276.167,282.575h0.036c0.468-0.756,1.17-1.639,2.863-1.639c2.107,0,3.979,1.621,3.979,4.934
		c0,2.629-1.188,5.15-4.033,5.15c-1.765,0-2.395-0.955-2.701-1.477h-0.036v4.951h-2.521v-13.307h2.413V282.575z M278.381,288.95
		c1.621,0,2.071-1.766,2.071-2.899c0-1.513-0.54-2.935-2.143-2.935c-1.729,0-2.143,1.548-2.143,3.078
		C276.167,287.617,276.778,288.95,278.381,288.95z"/>
	<path fill="#3E3A39" d="M292.566,288.895c0,1.135,0.252,1.387,0.558,1.494v0.379h-2.719c-0.144-0.451-0.18-0.595-0.234-1.135
		c-0.576,0.594-1.387,1.387-3.097,1.387c-1.44,0-2.917-0.811-2.917-2.791c0-1.873,1.188-2.827,2.791-3.061l2.269-0.343
		c0.396-0.054,0.882-0.216,0.882-0.757c0-1.062-1.008-1.115-1.656-1.115c-1.261,0-1.477,0.773-1.549,1.332h-2.431
		c0.288-2.936,2.323-3.35,4.285-3.35c1.351,0,3.817,0.414,3.817,2.773V288.895z M290.099,286.104
		c-0.252,0.198-0.666,0.36-1.71,0.522c-0.936,0.162-1.71,0.396-1.71,1.44c0,0.883,0.684,1.152,1.17,1.152
		c1.116,0,2.25-0.721,2.25-1.891V286.104z"/>
	<path fill="#3E3A39" d="M303.06,287.274c-0.09,0.99-0.864,3.746-4.375,3.746c-3.601,0-4.429-2.756-4.429-4.771
		c0-3.098,1.35-5.313,4.591-5.313c1.512,0,3.997,0.686,4.231,3.674h-2.557c-0.108-0.631-0.504-1.621-1.674-1.549
		c-1.584,0-1.999,1.584-1.999,2.773c0,1.044,0.036,3.115,1.944,3.115c1.278,0,1.71-1.225,1.71-1.676H303.06z"/>
	<path fill="#3E3A39" d="M307.054,290.768h-2.521V277.84h2.521v6.985l3.169-3.638h3.097l-3.385,3.71l3.475,5.87h-3.025l-2.287-4.105
		l-1.044,1.08V290.768z"/>
	<path fill="#3E3A39" d="M319.456,281.188h2.413v1.657h0.036c0.522-0.972,1.098-1.909,2.629-1.909c0.162,0,0.324,0.019,0.486,0.037
		v2.557c-0.216-0.037-0.486-0.037-0.72-0.037c-1.962,0-2.323,1.225-2.323,2.287v4.988h-2.521V281.188z"/>
	<path fill="#3E3A39" d="M334.704,287.959c-0.667,2.305-2.575,3.061-4.213,3.061c-2.701,0-4.771-1.297-4.771-5.24
		c0-1.152,0.396-4.844,4.591-4.844c1.891,0,4.501,0.9,4.501,5.276v0.45h-6.572c0.072,0.721,0.216,2.34,2.25,2.34
		c0.702,0,1.422-0.359,1.621-1.043H334.704z M332.219,285.024c-0.144-1.549-1.134-2.017-1.944-2.017
		c-1.188,0-1.819,0.757-1.963,2.017H332.219z"/>
	<path fill="#3E3A39" d="M341.903,284.106c-0.108-0.613-0.324-1.261-1.692-1.261s-1.548,0.522-1.548,0.937
		c0,1.512,5.996,0.414,5.996,3.943c0,2.791-2.701,3.295-4.195,3.295c-2.179,0-4.537-0.756-4.609-3.313h2.593
		c0,0.811,0.504,1.405,2.089,1.405c1.296,0,1.603-0.631,1.603-0.991c0-1.603-5.942-0.396-5.942-3.979
		c0-1.404,0.882-3.205,3.871-3.205c1.873,0,4.105,0.469,4.303,3.17H341.903z"/>
	<path fill="#3E3A39" d="M355.134,290.768h-2.413v-1.352h-0.036c-0.576,1.027-1.584,1.604-2.917,1.604
		c-1.891,0-3.259-1.08-3.259-3.529v-6.303h2.521v5.942c0,1.477,0.864,1.765,1.639,1.765c0.828,0,1.944-0.469,1.944-2.179v-5.528
		h2.521V290.768z"/>
	<path fill="#3E3A39" d="M360.082,290.768h-2.521V277.84h2.521V290.768z"/>
	<path fill="#3E3A39" d="M365.32,281.188h1.566v1.801h-1.566v5.204c0,0.558,0.018,0.774,1.044,0.774
		c0.162,0,0.342-0.018,0.522-0.036v1.909c-0.396,0.018-0.792,0.035-1.188,0.035h-0.324c-2.179,0-2.575-0.828-2.575-2.07v-5.816
		h-1.296v-1.801h1.296v-2.592h2.521V281.188z"/>
</g>
<g>
	<path fill="#3E3A39" d="M271.093,76.202c-0.216-0.774-0.63-2.232-2.863-2.232c-1.296,0-3.205,0.864-3.205,4.519
		c0,2.323,0.918,4.412,3.205,4.412c1.495,0,2.539-0.846,2.863-2.431h2.701c-0.54,2.809-2.376,4.771-5.617,4.771
		c-3.439,0-5.906-2.323-5.906-6.788c0-4.52,2.611-6.824,5.942-6.824c3.871,0,5.438,2.665,5.582,4.573H271.093z"/>
	<path fill="#3E3A39" d="M278.237,84.899h-2.521V71.971h2.521V84.899z"/>
	<path fill="#3E3A39" d="M283.241,74.186h-2.521v-2.34h2.521V74.186z M283.241,75.32v9.579h-2.521V75.32H283.241z"/>
	<path fill="#3E3A39" d="M293.881,82.09c-0.667,2.305-2.575,3.061-4.213,3.061c-2.701,0-4.771-1.296-4.771-5.239
		c0-1.152,0.396-4.844,4.591-4.844c1.891,0,4.501,0.9,4.501,5.276v0.45h-6.572c0.072,0.721,0.216,2.341,2.25,2.341
		c0.702,0,1.422-0.36,1.621-1.044H293.881z M291.396,79.155c-0.144-1.548-1.134-2.017-1.944-2.017c-1.188,0-1.819,0.756-1.963,2.017
		H291.396z"/>
	<path fill="#3E3A39" d="M304.321,84.899H301.8v-5.816c0-0.702-0.036-1.89-1.638-1.89c-1.117,0-1.981,0.756-1.981,2.214v5.492
		h-2.521V75.32h2.413v1.405h0.036c0.342-0.576,1.063-1.657,2.881-1.657c1.873,0,3.331,1.099,3.331,3.205V84.899z"/>
	<path fill="#3E3A39" d="M309.485,75.32h1.566v1.801h-1.566v5.204c0,0.558,0.018,0.774,1.044,0.774c0.162,0,0.342-0.018,0.522-0.036
		v1.909c-0.396,0.018-0.792,0.036-1.188,0.036h-0.324c-2.179,0-2.575-0.828-2.575-2.07v-5.816h-1.296V75.32h1.296v-2.593h2.521
		V75.32z"/>
	<path fill="#3E3A39" d="M323.075,78.237c-0.108-0.612-0.324-1.26-1.692-1.26s-1.548,0.522-1.548,0.936
		c0,1.513,5.996,0.415,5.996,3.943c0,2.791-2.701,3.295-4.195,3.295c-2.179,0-4.537-0.756-4.609-3.313h2.593
		c0,0.811,0.504,1.405,2.089,1.405c1.296,0,1.603-0.63,1.603-0.991c0-1.602-5.942-0.396-5.942-3.979
		c0-1.404,0.882-3.205,3.871-3.205c1.873,0,4.105,0.468,4.303,3.169H323.075z"/>
	<path fill="#3E3A39" d="M330.491,75.32h1.566v1.801h-1.566v5.204c0,0.558,0.018,0.774,1.044,0.774c0.162,0,0.342-0.018,0.522-0.036
		v1.909c-0.396,0.018-0.792,0.036-1.188,0.036h-0.324c-2.179,0-2.575-0.828-2.575-2.07v-5.816h-1.296V75.32h1.296v-2.593h2.521
		V75.32z"/>
	<path fill="#3E3A39" d="M342.3,84.899h-2.413v-1.351h-0.036c-0.576,1.026-1.584,1.603-2.917,1.603c-1.891,0-3.259-1.08-3.259-3.529
		V75.32h2.521v5.942c0,1.477,0.864,1.765,1.639,1.765c0.828,0,1.944-0.468,1.944-2.179V75.32h2.521V84.899z"/>
	<path fill="#3E3A39" d="M347.104,76.563h0.036c0.396-0.612,1.152-1.495,2.772-1.495c2.107,0,3.979,1.621,3.979,4.934
		c0,2.629-1.188,5.149-4.033,5.149c-1.044,0-2.161-0.378-2.773-1.458h-0.036v1.207h-2.467V71.971h2.521V76.563z M349.157,77.247
		c-1.729,0-2.161,1.548-2.161,3.079c0,1.422,0.63,2.755,2.232,2.755c1.621,0,2.071-1.765,2.071-2.899
		C351.3,78.669,350.759,77.247,349.157,77.247z"/>
</g>
<rect x="428.715" y="95.899" fill="#B6DCBA" stroke="#898989" stroke-miterlimit="10" width="150" height="240.5"/>
<g>
	<path fill="#3E3A39" d="M473.288,148.57h-2.701v-10.641h-3.907v-2.287h10.515v2.287h-3.907V148.57z"/>
	<path fill="#3E3A39" d="M477.138,138.991h2.413v1.657h0.036c0.522-0.972,1.098-1.909,2.629-1.909c0.162,0,0.324,0.018,0.486,0.036
		v2.557c-0.216-0.036-0.486-0.036-0.72-0.036c-1.962,0-2.323,1.225-2.323,2.287v4.987h-2.521V138.991z"/>
	<path fill="#3E3A39" d="M491.918,146.698c0,1.134,0.252,1.386,0.558,1.495v0.378h-2.719c-0.144-0.45-0.18-0.594-0.234-1.134
		c-0.576,0.594-1.387,1.386-3.097,1.386c-1.44,0-2.917-0.81-2.917-2.791c0-1.873,1.188-2.827,2.791-3.061l2.269-0.342
		c0.396-0.054,0.882-0.216,0.882-0.756c0-1.062-1.008-1.116-1.656-1.116c-1.261,0-1.477,0.774-1.549,1.333h-2.431
		c0.288-2.935,2.323-3.349,4.285-3.349c1.351,0,3.817,0.414,3.817,2.773V146.698z M489.452,143.907
		c-0.252,0.198-0.666,0.36-1.71,0.522c-0.936,0.162-1.71,0.396-1.71,1.44c0,0.882,0.684,1.152,1.17,1.152
		c1.116,0,2.25-0.72,2.25-1.891V143.907z"/>
	<path fill="#3E3A39" d="M502.826,148.57h-2.521v-5.816c0-0.702-0.036-1.89-1.638-1.89c-1.117,0-1.981,0.756-1.981,2.214v5.492
		h-2.521v-9.579h2.413v1.405h0.036c0.342-0.576,1.063-1.657,2.881-1.657c1.873,0,3.331,1.099,3.331,3.205V148.57z"/>
	<path fill="#3E3A39" d="M510.584,141.908c-0.108-0.612-0.324-1.26-1.693-1.26c-1.367,0-1.548,0.522-1.548,0.936
		c0,1.513,5.995,0.415,5.995,3.943c0,2.791-2.7,3.295-4.195,3.295c-2.178,0-4.537-0.756-4.609-3.313h2.594
		c0,0.811,0.504,1.405,2.088,1.405c1.297,0,1.604-0.63,1.604-0.991c0-1.602-5.942-0.396-5.942-3.979
		c0-1.404,0.882-3.205,3.871-3.205c1.872,0,4.104,0.468,4.304,3.169H510.584z"/>
	<path fill="#3E3A39" d="M528.874,148.57h-2.521v-5.816c0-1.422-0.631-1.89-1.369-1.89c-1.26,0-1.71,0.828-1.71,1.962v5.744h-2.521
		v-5.762c0-0.81,0-1.944-1.513-1.944c-1.188,0-1.567,0.828-1.567,1.872v5.834h-2.52v-9.579h2.412v1.405h0.036
		c0.324-0.63,1.026-1.657,2.719-1.657c1.386,0,2.017,0.504,2.665,1.531c0.324-0.468,1.025-1.531,2.557-1.531
		c1.873,0,3.331,1.099,3.331,3.205V148.57z"/>
	<path fill="#3E3A39" d="M533.767,137.857h-2.521v-2.34h2.521V137.857z M533.767,138.991v9.579h-2.521v-9.579H533.767z"/>
	<path fill="#3E3A39" d="M539.004,138.991h1.566v1.801h-1.566v5.204c0,0.558,0.019,0.774,1.045,0.774
		c0.162,0,0.342-0.018,0.521-0.036v1.909c-0.396,0.018-0.791,0.036-1.188,0.036h-0.324c-2.179,0-2.574-0.828-2.574-2.07v-5.816
		h-1.297v-1.801h1.297v-2.593h2.52V138.991z"/>
</g>
<g>
	<path fill="#3E3A39" d="M471.064,277.84h6.536c3.439,0,4.069,2.538,4.069,3.654c0,1.422-0.72,2.646-1.999,3.079
		c1.062,0.468,1.638,0.864,1.638,3.276c0,1.891,0,2.359,0.576,2.575v0.343h-2.989c-0.18-0.613-0.288-1.279-0.288-2.611
		c0-1.765-0.108-2.449-2.106-2.449h-2.791v5.061h-2.646V277.84z M476.879,283.53c1.404,0,2.089-0.486,2.089-1.766
		c0-0.684-0.306-1.691-1.891-1.691h-3.367v3.457H476.879z"/>
	<path fill="#3E3A39" d="M492.09,287.959c-0.667,2.305-2.575,3.061-4.213,3.061c-2.701,0-4.771-1.297-4.771-5.24
		c0-1.152,0.396-4.844,4.591-4.844c1.891,0,4.501,0.9,4.501,5.276v0.45h-6.572c0.072,0.721,0.216,2.34,2.25,2.34
		c0.702,0,1.422-0.359,1.621-1.043H492.09z M489.605,285.024c-0.144-1.549-1.134-2.017-1.944-2.017
		c-1.188,0-1.819,0.757-1.963,2.017H489.605z"/>
	<path fill="#3E3A39" d="M502.116,287.274c-0.091,0.99-0.864,3.746-4.375,3.746c-3.601,0-4.429-2.756-4.429-4.771
		c0-3.098,1.35-5.313,4.591-5.313c1.512,0,3.998,0.686,4.232,3.674h-2.558c-0.108-0.631-0.504-1.621-1.674-1.549
		c-1.584,0-1.999,1.584-1.999,2.773c0,1.044,0.036,3.115,1.944,3.115c1.278,0,1.71-1.225,1.71-1.676H502.116z"/>
	<path fill="#3E3A39" d="M512.105,287.959c-0.666,2.305-2.574,3.061-4.213,3.061c-2.701,0-4.771-1.297-4.771-5.24
		c0-1.152,0.396-4.844,4.592-4.844c1.891,0,4.501,0.9,4.501,5.276v0.45h-6.571c0.071,0.721,0.215,2.34,2.25,2.34
		c0.702,0,1.422-0.359,1.621-1.043H512.105z M509.621,285.024c-0.145-1.549-1.135-2.017-1.945-2.017
		c-1.188,0-1.818,0.757-1.962,2.017H509.621z"/>
	<path fill="#3E3A39" d="M516.479,280.054h-2.521v-2.341h2.521V280.054z M516.479,281.188v9.58h-2.521v-9.58H516.479z"/>
	<path fill="#3E3A39" d="M524.039,290.768h-2.646l-3.439-9.58h2.809l1.98,7.059h0.037l2.034-7.059h2.683L524.039,290.768z"/>
	<path fill="#3E3A39" d="M537.126,287.959c-0.667,2.305-2.575,3.061-4.214,3.061c-2.7,0-4.771-1.297-4.771-5.24
		c0-1.152,0.396-4.844,4.592-4.844c1.891,0,4.502,0.9,4.502,5.276v0.45h-6.572c0.072,0.721,0.216,2.34,2.25,2.34
		c0.703,0,1.423-0.359,1.621-1.043H537.126z M534.641,285.024c-0.144-1.549-1.134-2.017-1.943-2.017
		c-1.189,0-1.819,0.757-1.963,2.017H534.641z"/>
</g>
<g>
	<path fill="#3E3A39" d="M450.58,71.971h6.536c3.439,0,4.069,2.539,4.069,3.655c0,1.422-0.72,2.647-1.999,3.079
		c1.062,0.468,1.638,0.864,1.638,3.277c0,1.891,0,2.359,0.576,2.575v0.342h-2.989c-0.18-0.612-0.288-1.278-0.288-2.611
		c0-1.765-0.108-2.449-2.106-2.449h-2.791v5.06h-2.647V71.971z M456.396,77.661c1.404,0,2.089-0.486,2.089-1.765
		c0-0.684-0.306-1.692-1.891-1.692h-3.367v3.457H456.396z"/>
	<path fill="#3E3A39" d="M466.276,84.899h-2.701V71.971h5.905c2.503,0,4.016,1.603,4.016,4.141c0,1.17-0.648,4.123-4.124,4.123
		h-3.097V84.899z M468.779,78.003c2.017,0,2.017-1.44,2.017-2.017c0-1.26-0.702-1.783-2.376-1.783h-2.143v3.799H468.779z"/>
	<path fill="#3E3A39" d="M483.828,76.202c-0.216-0.774-0.63-2.232-2.863-2.232c-1.296,0-3.205,0.864-3.205,4.519
		c0,2.323,0.918,4.412,3.205,4.412c1.495,0,2.539-0.846,2.863-2.431h2.701c-0.541,2.809-2.377,4.771-5.618,4.771
		c-3.439,0-5.905-2.323-5.905-6.788c0-4.52,2.61-6.824,5.941-6.824c3.871,0,5.438,2.665,5.582,4.573H483.828z"/>
	<path fill="#3E3A39" d="M493.365,75.32h2.413v1.657h0.036c0.522-0.972,1.098-1.909,2.629-1.909c0.162,0,0.324,0.018,0.486,0.036
		v2.557c-0.216-0.036-0.486-0.036-0.72-0.036c-1.962,0-2.322,1.225-2.322,2.287v4.987h-2.521V75.32z"/>
	<path fill="#3E3A39" d="M509.027,84.899h-2.412v-1.351h-0.037c-0.576,1.026-1.584,1.603-2.916,1.603
		c-1.891,0-3.259-1.08-3.259-3.529V75.32h2.521v5.942c0,1.477,0.863,1.765,1.639,1.765c0.828,0,1.943-0.468,1.943-2.179V75.32h2.521
		V84.899z"/>
	<path fill="#3E3A39" d="M520.043,84.899h-2.521v-5.816c0-0.702-0.036-1.89-1.638-1.89c-1.117,0-1.981,0.756-1.981,2.214v5.492
		h-2.521V75.32h2.412v1.405h0.037c0.342-0.576,1.063-1.657,2.881-1.657c1.872,0,3.33,1.099,3.33,3.205V84.899z"/>
	<path fill="#3E3A39" d="M525.207,75.32h1.566v1.801h-1.566v5.204c0,0.558,0.019,0.774,1.045,0.774c0.162,0,0.342-0.018,0.521-0.036
		v1.909c-0.396,0.018-0.791,0.036-1.188,0.036h-0.324c-2.179,0-2.574-0.828-2.574-2.07v-5.816h-1.297V75.32h1.297v-2.593h2.52V75.32
		z"/>
	<path fill="#3E3A39" d="M530.967,74.186h-2.521v-2.34h2.521V74.186z M530.967,75.32v9.579h-2.521V75.32H530.967z"/>
	<path fill="#3E3A39" d="M547.08,84.899h-2.521v-5.816c0-1.422-0.63-1.89-1.368-1.89c-1.26,0-1.711,0.828-1.711,1.962v5.744h-2.521
		v-5.762c0-0.81,0-1.944-1.513-1.944c-1.188,0-1.566,0.828-1.566,1.872v5.834h-2.521V75.32h2.413v1.405h0.035
		c0.324-0.63,1.027-1.657,2.719-1.657c1.387,0,2.018,0.504,2.666,1.531c0.323-0.468,1.025-1.531,2.557-1.531
		c1.872,0,3.33,1.099,3.33,3.205V84.899z"/>
	<path fill="#3E3A39" d="M557.609,82.09c-0.667,2.305-2.575,3.061-4.214,3.061c-2.7,0-4.771-1.296-4.771-5.239
		c0-1.152,0.396-4.844,4.591-4.844c1.891,0,4.502,0.9,4.502,5.276v0.45h-6.572c0.072,0.721,0.217,2.341,2.251,2.341
		c0.702,0,1.423-0.36,1.62-1.044H557.609z M555.124,79.155c-0.144-1.548-1.134-2.017-1.944-2.017c-1.188,0-1.818,0.756-1.963,2.017
		H555.124z"/>
</g>
<g>
	<path fill="#3E3A39" d="M485.364,205.971h2.881c1.656,7.076,1.818,7.977,2.053,9.453h0.036c0.233-1.351,0.432-2.665,1.801-9.453
		h2.862c1.513,7.094,1.639,7.778,1.927,9.453h0.036c0.216-1.225,0.432-2.342,2.106-9.453h2.736l-3.637,12.928h-2.593
		c-1.332-6.338-1.566-7.598-1.999-10.083h-0.035c-0.396,2.485-0.612,3.421-1.999,10.083h-2.521L485.364,205.971z"/>
	<path fill="#3E3A39" d="M510.278,217.026c0,1.135,0.252,1.387,0.559,1.495v0.378h-2.72c-0.144-0.45-0.18-0.594-0.233-1.135
		c-0.576,0.595-1.387,1.387-3.097,1.387c-1.44,0-2.917-0.811-2.917-2.791c0-1.872,1.188-2.826,2.79-3.061l2.27-0.342
		c0.396-0.055,0.882-0.217,0.882-0.757c0-1.062-1.008-1.116-1.656-1.116c-1.261,0-1.477,0.774-1.549,1.332h-2.431
		c0.288-2.935,2.323-3.349,4.285-3.349c1.351,0,3.817,0.414,3.817,2.773V217.026z M507.812,214.235
		c-0.252,0.199-0.666,0.361-1.71,0.523c-0.937,0.162-1.711,0.396-1.711,1.439c0,0.883,0.685,1.152,1.17,1.152
		c1.117,0,2.251-0.72,2.251-1.891V214.235z"/>
	<path fill="#3E3A39" d="M515.119,208.186h-2.521v-2.34h2.521V208.186z M515.119,209.32v9.579h-2.521v-9.579H515.119z"/>
	<path fill="#3E3A39" d="M520.357,209.32h1.566v1.801h-1.566v5.204c0,0.558,0.019,0.773,1.045,0.773
		c0.161,0,0.342-0.018,0.521-0.035v1.908c-0.396,0.018-0.792,0.035-1.188,0.035h-0.324c-2.179,0-2.574-0.828-2.574-2.07v-5.815
		h-1.297v-1.801h1.297v-2.593h2.521V209.32z"/>
</g>
<g>
	<g>
		<g>
			<polygon fill="#3E3A39" points="187.98,145.034 222.732,145.034 222.732,148.811 232.98,142.891 222.732,136.972 222.732,140.75 
				187.98,140.75 			"/>
		</g>
	</g>
</g>
<g>
	<g>
		<g>
			<polygon fill="#3E3A39" points="383.98,145.034 418.732,145.034 418.732,148.811 428.98,142.891 418.732,136.972 418.732,140.75 
				383.98,140.75 			"/>
		</g>
	</g>
</g>
<g>
	<g>
		<g>
			<polygon fill="#3E3A39" points="232.98,282.946 198.229,282.946 198.229,279.168 187.98,285.088 198.229,291.008 
				198.229,287.231 232.98,287.231 			"/>
		</g>
	</g>
</g>
<g>
	<g>
		<g>
			<polygon fill="#3E3A39" points="428.98,282.946 394.229,282.946 394.229,279.168 383.98,285.088 394.229,291.008 
				394.229,287.231 428.98,287.231 			"/>
		</g>
	</g>
</g>
<g>
	<g>
		<g>
			<polygon fill="#3E3A39" points="501.573,161.645 501.573,181.336 497.795,181.336 503.715,191.584 509.635,181.336 
				505.857,181.336 505.857,161.645 			"/>
		</g>
	</g>
</g>
<g>
	<g>
		<g>
			<polygon fill="#3E3A39" points="501.573,235.626 501.573,255.317 497.795,255.317 503.715,265.565 509.635,255.317 
				505.857,255.317 505.857,235.626 			"/>
		</g>
	</g>
</g>
<rect x="769.684" y="95.899" fill="#B6DCBA" stroke="#898989" stroke-miterlimit="10" width="150" height="250"/>
<g>
	<path fill="#3E3A39" d="M812.032,135.643h6.536c3.438,0,4.068,2.539,4.068,3.655c0,1.422-0.72,2.647-1.998,3.079
		c1.063,0.468,1.639,0.864,1.639,3.277c0,1.891,0,2.359,0.576,2.575v0.342h-2.989c-0.181-0.612-0.288-1.278-0.288-2.611
		c0-1.765-0.107-2.449-2.106-2.449h-2.791v5.06h-2.646V135.643z M817.848,141.332c1.404,0,2.089-0.486,2.089-1.765
		c0-0.684-0.306-1.692-1.891-1.692h-3.367v3.457H817.848z"/>
	<path fill="#3E3A39" d="M833.059,145.762c-0.667,2.305-2.575,3.061-4.214,3.061c-2.7,0-4.771-1.296-4.771-5.239
		c0-1.152,0.396-4.844,4.591-4.844c1.891,0,4.502,0.9,4.502,5.276v0.45h-6.572c0.072,0.721,0.217,2.341,2.251,2.341
		c0.702,0,1.423-0.36,1.62-1.044H833.059z M830.573,142.827c-0.144-1.548-1.134-2.017-1.944-2.017c-1.188,0-1.818,0.756-1.963,2.017
		H830.573z"/>
	<path fill="#3E3A39" d="M843.084,145.077c-0.09,0.99-0.863,3.745-4.375,3.745c-3.602,0-4.43-2.755-4.43-4.771
		c0-3.097,1.351-5.312,4.592-5.312c1.512,0,3.997,0.685,4.231,3.673h-2.558c-0.107-0.63-0.504-1.621-1.674-1.548
		c-1.584,0-1.998,1.584-1.998,2.772c0,1.044,0.035,3.115,1.943,3.115c1.279,0,1.711-1.225,1.711-1.675H843.084z"/>
	<path fill="#3E3A39" d="M853.074,145.762c-0.666,2.305-2.574,3.061-4.213,3.061c-2.701,0-4.771-1.296-4.771-5.239
		c0-1.152,0.396-4.844,4.591-4.844c1.891,0,4.501,0.9,4.501,5.276v0.45h-6.571c0.071,0.721,0.216,2.341,2.251,2.341
		c0.701,0,1.422-0.36,1.62-1.044H853.074z M850.59,142.827c-0.145-1.548-1.135-2.017-1.945-2.017c-1.188,0-1.818,0.756-1.963,2.017
		H850.59z"/>
	<path fill="#3E3A39" d="M857.446,137.857h-2.521v-2.34h2.521V137.857z M857.446,138.991v9.579h-2.521v-9.579H857.446z"/>
	<path fill="#3E3A39" d="M865.008,148.57h-2.647l-3.438-9.579h2.809l1.98,7.059h0.036l2.034-7.059h2.684L865.008,148.57z"/>
	<path fill="#3E3A39" d="M878.094,145.762c-0.666,2.305-2.574,3.061-4.213,3.061c-2.701,0-4.771-1.296-4.771-5.239
		c0-1.152,0.396-4.844,4.592-4.844c1.891,0,4.501,0.9,4.501,5.276v0.45h-6.571c0.071,0.721,0.215,2.341,2.25,2.341
		c0.702,0,1.422-0.36,1.621-1.044H878.094z M875.609,142.827c-0.145-1.548-1.135-2.017-1.944-2.017
		c-1.188,0-1.819,0.756-1.963,2.017H875.609z"/>
</g>
<g>
	<path fill="#3E3A39" d="M814.256,290.768h-2.701v-10.642h-3.906v-2.286h10.515v2.286h-3.907V290.768z"/>
	<path fill="#3E3A39" d="M818.106,281.188h2.413v1.657h0.035c0.522-0.972,1.099-1.909,2.629-1.909c0.162,0,0.324,0.019,0.486,0.037
		v2.557c-0.216-0.037-0.486-0.037-0.721-0.037c-1.962,0-2.322,1.225-2.322,2.287v4.988h-2.521V281.188z"/>
	<path fill="#3E3A39" d="M832.887,288.895c0,1.135,0.252,1.387,0.559,1.494v0.379h-2.719c-0.145-0.451-0.181-0.595-0.234-1.135
		c-0.576,0.594-1.387,1.387-3.098,1.387c-1.439,0-2.916-0.811-2.916-2.791c0-1.873,1.188-2.827,2.791-3.061l2.268-0.343
		c0.396-0.054,0.883-0.216,0.883-0.757c0-1.062-1.008-1.115-1.656-1.115c-1.261,0-1.477,0.773-1.549,1.332h-2.431
		c0.288-2.936,2.323-3.35,4.285-3.35c1.351,0,3.817,0.414,3.817,2.773V288.895z M830.42,286.104
		c-0.252,0.198-0.666,0.36-1.711,0.522c-0.936,0.162-1.71,0.396-1.71,1.44c0,0.883,0.685,1.152,1.171,1.152
		c1.115,0,2.25-0.721,2.25-1.891V286.104z"/>
	<path fill="#3E3A39" d="M843.795,290.768h-2.521v-5.816c0-0.702-0.035-1.891-1.638-1.891c-1.116,0-1.981,0.756-1.981,2.215v5.492
		h-2.52v-9.58h2.412v1.405h0.036c0.342-0.576,1.063-1.657,2.881-1.657c1.872,0,3.331,1.1,3.331,3.205V290.768z"/>
	<path fill="#3E3A39" d="M851.552,284.106c-0.108-0.613-0.324-1.261-1.692-1.261s-1.549,0.522-1.549,0.937
		c0,1.512,5.996,0.414,5.996,3.943c0,2.791-2.701,3.295-4.195,3.295c-2.179,0-4.537-0.756-4.609-3.313h2.593
		c0,0.811,0.505,1.405,2.089,1.405c1.297,0,1.603-0.631,1.603-0.991c0-1.603-5.942-0.396-5.942-3.979
		c0-1.404,0.883-3.205,3.871-3.205c1.873,0,4.105,0.469,4.304,3.17H851.552z"/>
	<path fill="#3E3A39" d="M869.842,290.768h-2.521v-5.816c0-1.422-0.63-1.891-1.368-1.891c-1.261,0-1.711,0.828-1.711,1.963v5.744
		h-2.521v-5.762c0-0.811,0-1.945-1.513-1.945c-1.188,0-1.566,0.828-1.566,1.873v5.834h-2.521v-9.58h2.413v1.405h0.035
		c0.324-0.63,1.027-1.657,2.719-1.657c1.387,0,2.018,0.505,2.666,1.531c0.323-0.469,1.025-1.531,2.557-1.531
		c1.872,0,3.33,1.1,3.33,3.205V290.768z"/>
	<path fill="#3E3A39" d="M874.734,280.054h-2.521v-2.341h2.521V280.054z M874.734,281.188v9.58h-2.521v-9.58H874.734z"/>
	<path fill="#3E3A39" d="M879.973,281.188h1.566v1.801h-1.566v5.204c0,0.558,0.018,0.774,1.045,0.774
		c0.162,0,0.342-0.018,0.521-0.036v1.909c-0.396,0.018-0.792,0.035-1.188,0.035h-0.324c-2.18,0-2.575-0.828-2.575-2.07v-5.816
		h-1.296v-1.801h1.296v-2.592h2.521V281.188z"/>
</g>
<g>
	<path fill="#3E3A39" d="M791.548,71.971h6.536c3.439,0,4.069,2.539,4.069,3.655c0,1.422-0.72,2.647-1.999,3.079
		c1.063,0.468,1.639,0.864,1.639,3.277c0,1.891,0,2.359,0.576,2.575v0.342h-2.988c-0.181-0.612-0.289-1.278-0.289-2.611
		c0-1.765-0.107-2.449-2.105-2.449h-2.791v5.06h-2.647V71.971z M797.363,77.661c1.404,0,2.09-0.486,2.09-1.765
		c0-0.684-0.307-1.692-1.891-1.692h-3.367v3.457H797.363z"/>
	<path fill="#3E3A39" d="M807.244,84.899h-2.7V71.971h5.905c2.503,0,4.016,1.603,4.016,4.141c0,1.17-0.648,4.123-4.123,4.123h-3.098
		V84.899z M809.747,78.003c2.017,0,2.017-1.44,2.017-2.017c0-1.26-0.702-1.783-2.377-1.783h-2.143v3.799H809.747z"/>
	<path fill="#3E3A39" d="M824.796,76.202c-0.216-0.774-0.63-2.232-2.862-2.232c-1.297,0-3.205,0.864-3.205,4.519
		c0,2.323,0.918,4.412,3.205,4.412c1.494,0,2.538-0.846,2.862-2.431h2.701c-0.54,2.809-2.377,4.771-5.618,4.771
		c-3.439,0-5.905-2.323-5.905-6.788c0-4.52,2.61-6.824,5.941-6.824c3.871,0,5.438,2.665,5.582,4.573H824.796z"/>
	<path fill="#3E3A39" d="M834.334,75.32h2.412v1.657h0.036c0.522-0.972,1.099-1.909,2.629-1.909c0.162,0,0.324,0.018,0.485,0.036
		v2.557c-0.215-0.036-0.485-0.036-0.72-0.036c-1.962,0-2.322,1.225-2.322,2.287v4.987h-2.521V75.32z"/>
	<path fill="#3E3A39" d="M849.996,84.899h-2.413v-1.351h-0.036c-0.576,1.026-1.584,1.603-2.917,1.603
		c-1.891,0-3.259-1.08-3.259-3.529V75.32h2.521v5.942c0,1.477,0.864,1.765,1.639,1.765c0.828,0,1.944-0.468,1.944-2.179V75.32h2.521
		V84.899z"/>
	<path fill="#3E3A39" d="M861.012,84.899h-2.521v-5.816c0-0.702-0.035-1.89-1.638-1.89c-1.116,0-1.981,0.756-1.981,2.214v5.492
		h-2.52V75.32h2.412v1.405h0.036c0.342-0.576,1.063-1.657,2.881-1.657c1.872,0,3.331,1.099,3.331,3.205V84.899z"/>
	<path fill="#3E3A39" d="M866.176,75.32h1.566v1.801h-1.566v5.204c0,0.558,0.018,0.774,1.045,0.774c0.162,0,0.342-0.018,0.521-0.036
		v1.909c-0.396,0.018-0.792,0.036-1.188,0.036h-0.324c-2.18,0-2.575-0.828-2.575-2.07v-5.816h-1.296V75.32h1.296v-2.593h2.521V75.32
		z"/>
	<path fill="#3E3A39" d="M871.936,74.186h-2.521v-2.34h2.521V74.186z M871.936,75.32v9.579h-2.521V75.32H871.936z"/>
	<path fill="#3E3A39" d="M888.049,84.899h-2.521v-5.816c0-1.422-0.629-1.89-1.367-1.89c-1.261,0-1.711,0.828-1.711,1.962v5.744
		h-2.521v-5.762c0-0.81,0-1.944-1.512-1.944c-1.188,0-1.566,0.828-1.566,1.872v5.834h-2.521V75.32h2.413v1.405h0.036
		c0.324-0.63,1.026-1.657,2.719-1.657c1.387,0,2.017,0.504,2.665,1.531c0.323-0.468,1.026-1.531,2.557-1.531
		c1.872,0,3.331,1.099,3.331,3.205V84.899z"/>
	<path fill="#3E3A39" d="M898.577,82.09c-0.667,2.305-2.575,3.061-4.214,3.061c-2.7,0-4.771-1.296-4.771-5.239
		c0-1.152,0.396-4.844,4.592-4.844c1.891,0,4.502,0.9,4.502,5.276v0.45h-6.572c0.072,0.721,0.216,2.341,2.25,2.341
		c0.703,0,1.423-0.36,1.621-1.044H898.577z M896.092,79.155c-0.144-1.548-1.134-2.017-1.944-2.017c-1.188,0-1.818,0.756-1.962,2.017
		H896.092z"/>
</g>
<rect x="966.082" y="95.899" fill="#FFEC93" stroke="#898989" stroke-miterlimit="10" width="150" height="250"/>
<g>
	<path fill="#3E3A39" d="M1020.477,134.051c0,3.403-2.053,4.862-5.313,4.862c-1.188,0-2.953-0.288-4.105-1.567
		c-0.701-0.792-0.972-1.836-1.008-3.133v-8.57h2.755v8.391c0,1.8,1.044,2.593,2.305,2.593c1.854,0,2.61-0.9,2.61-2.467v-8.517h2.756
		V134.051z"/>
	<path fill="#3E3A39" d="M1031.581,138.57h-2.521v-5.816c0-0.702-0.037-1.89-1.639-1.89c-1.117,0-1.98,0.756-1.98,2.214v5.492
		h-2.521v-9.579h2.413v1.405h0.036c0.342-0.576,1.063-1.657,2.881-1.657c1.873,0,3.331,1.099,3.331,3.205V138.57z"/>
	<path fill="#3E3A39" d="M1036.277,130.378h0.035c0.469-0.756,1.171-1.639,2.863-1.639c2.107,0,3.979,1.621,3.979,4.934
		c0,2.629-1.188,5.149-4.033,5.149c-1.765,0-2.396-0.954-2.7-1.477h-0.037v4.952h-2.521v-13.306h2.413V130.378z M1038.492,136.752
		c1.62,0,2.07-1.765,2.07-2.899c0-1.513-0.541-2.935-2.143-2.935c-1.729,0-2.143,1.548-2.143,3.079
		C1036.277,135.419,1036.889,136.752,1038.492,136.752z"/>
	<path fill="#3E3A39" d="M1052.676,136.698c0,1.134,0.252,1.386,0.559,1.495v0.378h-2.719c-0.145-0.45-0.18-0.594-0.234-1.134
		c-0.576,0.594-1.387,1.386-3.097,1.386c-1.44,0-2.917-0.81-2.917-2.791c0-1.873,1.188-2.827,2.791-3.061l2.269-0.342
		c0.396-0.054,0.882-0.216,0.882-0.756c0-1.062-1.008-1.116-1.656-1.116c-1.26,0-1.477,0.774-1.549,1.333h-2.43
		c0.287-2.935,2.322-3.349,4.285-3.349c1.35,0,3.816,0.414,3.816,2.773V136.698z M1050.209,133.907
		c-0.252,0.198-0.666,0.36-1.71,0.522c-0.937,0.162-1.71,0.396-1.71,1.44c0,0.882,0.684,1.152,1.17,1.152
		c1.116,0,2.25-0.72,2.25-1.891V133.907z"/>
	<path fill="#3E3A39" d="M1063.171,135.077c-0.091,0.99-0.864,3.745-4.376,3.745c-3.601,0-4.429-2.755-4.429-4.771
		c0-3.097,1.351-5.312,4.591-5.312c1.513,0,3.998,0.685,4.232,3.673h-2.558c-0.108-0.63-0.504-1.621-1.675-1.548
		c-1.584,0-1.998,1.584-1.998,2.772c0,1.044,0.035,3.115,1.944,3.115c1.278,0,1.71-1.225,1.71-1.675H1063.171z"/>
	<path fill="#3E3A39" d="M1067.165,138.57h-2.521v-12.928h2.521v6.986l3.169-3.637h3.097l-3.385,3.709l3.476,5.87h-3.025
		l-2.287-4.105l-1.044,1.081V138.57z"/>
	<path fill="#3E3A39" d="M1009.145,158.298c0,1.134,0.252,1.386,0.558,1.495v0.378h-2.719c-0.144-0.45-0.181-0.594-0.233-1.134
		c-0.576,0.594-1.387,1.386-3.098,1.386c-1.44,0-2.917-0.81-2.917-2.791c0-1.873,1.188-2.827,2.791-3.061l2.269-0.342
		c0.396-0.054,0.883-0.216,0.883-0.756c0-1.063-1.009-1.117-1.656-1.117c-1.262,0-1.477,0.774-1.549,1.333h-2.432
		c0.289-2.935,2.323-3.349,4.285-3.349c1.352,0,3.818,0.414,3.818,2.773V158.298z M1006.678,155.507
		c-0.252,0.198-0.666,0.36-1.711,0.522c-0.936,0.162-1.711,0.396-1.711,1.44c0,0.882,0.685,1.152,1.171,1.152
		c1.116,0,2.251-0.72,2.251-1.891V155.507z"/>
	<path fill="#3E3A39" d="M1011.373,150.592h2.413v1.656h0.036c0.521-0.972,1.098-1.909,2.629-1.909c0.162,0,0.324,0.018,0.486,0.036
		v2.557c-0.217-0.036-0.486-0.036-0.721-0.036c-1.963,0-2.322,1.224-2.322,2.287v4.987h-2.521V150.592z"/>
	<path fill="#3E3A39" d="M1026.91,150.592v9.074c0,1.657-0.126,4.412-4.844,4.412c-1.98,0-4.068-0.846-4.178-2.881h2.738
		c0.107,0.486,0.305,0.972,1.764,0.972c1.351,0,1.998-0.648,1.998-2.197v-1.152l-0.035-0.036c-0.414,0.738-1.045,1.44-2.557,1.44
		c-2.305,0-4.123-1.603-4.123-4.952c0-3.313,1.872-4.934,3.979-4.934c1.783,0,2.503,1.044,2.809,1.675h0.037v-1.422H1026.91z
		 M1022.265,158.1c1.71,0,2.143-1.458,2.143-2.772c0-1.549-0.757-2.809-2.161-2.809c-0.936,0-1.98,0.684-1.98,2.917
		C1020.266,156.659,1020.77,158.1,1022.265,158.1z"/>
	<path fill="#3E3A39" d="M1037.764,160.17h-2.412v-1.351h-0.036c-0.576,1.026-1.585,1.603-2.917,1.603
		c-1.891,0-3.259-1.08-3.259-3.529v-6.302h2.521v5.941c0,1.477,0.864,1.765,1.639,1.765c0.828,0,1.944-0.468,1.944-2.179v-5.527
		h2.521V160.17z"/>
	<path fill="#3E3A39" d="M1053.821,160.17h-2.521v-5.816c0-1.422-0.631-1.891-1.369-1.891c-1.26,0-1.71,0.829-1.71,1.963v5.744
		h-2.521v-5.762c0-0.81,0-1.945-1.513-1.945c-1.188,0-1.567,0.829-1.567,1.873v5.833h-2.52v-9.579h2.412v1.404h0.036
		c0.324-0.63,1.026-1.657,2.719-1.657c1.386,0,2.017,0.504,2.665,1.531c0.324-0.468,1.025-1.531,2.557-1.531
		c1.873,0,3.331,1.099,3.331,3.205V160.17z"/>
	<path fill="#3E3A39" d="M1064.35,157.361c-0.666,2.305-2.574,3.061-4.213,3.061c-2.701,0-4.771-1.296-4.771-5.239
		c0-1.152,0.396-4.844,4.591-4.844c1.891,0,4.501,0.9,4.501,5.276v0.45h-6.571c0.071,0.72,0.216,2.34,2.251,2.34
		c0.701,0,1.422-0.36,1.62-1.044H1064.35z M1061.865,154.427c-0.145-1.548-1.135-2.017-1.945-2.017
		c-1.188,0-1.818,0.756-1.963,2.017H1061.865z"/>
	<path fill="#3E3A39" d="M1074.79,160.17h-2.521v-5.816c0-0.702-0.037-1.891-1.639-1.891c-1.117,0-1.98,0.756-1.98,2.215v5.492
		h-2.521v-9.579h2.413v1.404h0.036c0.342-0.576,1.063-1.657,2.881-1.657c1.873,0,3.331,1.099,3.331,3.205V160.17z"/>
	<path fill="#3E3A39" d="M1079.953,150.592h1.566v1.8h-1.566v5.204c0,0.558,0.019,0.774,1.045,0.774
		c0.162,0,0.342-0.018,0.521-0.036v1.908c-0.396,0.018-0.791,0.036-1.188,0.036h-0.324c-2.179,0-2.574-0.828-2.574-2.07v-5.816
		h-1.297v-1.8h1.297v-2.593h2.52V150.592z"/>
</g>
<g>
	<path fill="#3E3A39" d="M997.578,290.768h-2.701V277.84h5.905c2.503,0,4.016,1.602,4.016,4.141c0,1.17-0.648,4.123-4.124,4.123
		h-3.096V290.768z M1000.08,283.872c2.017,0,2.017-1.44,2.017-2.017c0-1.261-0.702-1.782-2.376-1.782h-2.143v3.799H1000.08z"/>
	<path fill="#3E3A39" d="M1013.904,288.895c0,1.135,0.252,1.387,0.559,1.494v0.379h-2.719c-0.145-0.451-0.18-0.595-0.234-1.135
		c-0.576,0.594-1.387,1.387-3.097,1.387c-1.44,0-2.917-0.811-2.917-2.791c0-1.873,1.188-2.827,2.791-3.061l2.269-0.343
		c0.396-0.054,0.882-0.216,0.882-0.757c0-1.062-1.008-1.115-1.656-1.115c-1.26,0-1.477,0.773-1.549,1.332h-2.43
		c0.287-2.936,2.322-3.35,4.285-3.35c1.35,0,3.816,0.414,3.816,2.773V288.895z M1011.438,286.104
		c-0.252,0.198-0.666,0.36-1.71,0.522c-0.937,0.162-1.71,0.396-1.71,1.44c0,0.883,0.684,1.152,1.17,1.152
		c1.116,0,2.25-0.721,2.25-1.891V286.104z"/>
	<path fill="#3E3A39" d="M1024.399,287.274c-0.091,0.99-0.864,3.746-4.376,3.746c-3.601,0-4.429-2.756-4.429-4.771
		c0-3.098,1.351-5.313,4.591-5.313c1.513,0,3.998,0.686,4.231,3.674h-2.557c-0.108-0.631-0.504-1.621-1.675-1.549
		c-1.584,0-1.998,1.584-1.998,2.773c0,1.044,0.036,3.115,1.944,3.115c1.278,0,1.71-1.225,1.71-1.676H1024.399z"/>
	<path fill="#3E3A39" d="M1028.394,290.768h-2.521V277.84h2.521v6.985l3.169-3.638h3.097l-3.385,3.71l3.476,5.87h-3.025
		l-2.287-4.105l-1.044,1.08V290.768z"/>
	<path fill="#3E3A39" d="M1040.795,281.188h2.412v1.657h0.037c0.521-0.972,1.098-1.909,2.629-1.909c0.162,0,0.323,0.019,0.485,0.037
		v2.557c-0.216-0.037-0.485-0.037-0.72-0.037c-1.963,0-2.323,1.225-2.323,2.287v4.988h-2.521V281.188z"/>
	<path fill="#3E3A39" d="M1056.043,287.959c-0.666,2.305-2.574,3.061-4.213,3.061c-2.701,0-4.771-1.297-4.771-5.24
		c0-1.152,0.396-4.844,4.591-4.844c1.891,0,4.501,0.9,4.501,5.276v0.45h-6.571c0.071,0.721,0.216,2.34,2.251,2.34
		c0.701,0,1.422-0.359,1.62-1.043H1056.043z M1053.559,285.024c-0.145-1.549-1.135-2.017-1.945-2.017
		c-1.188,0-1.818,0.757-1.963,2.017H1053.559z"/>
	<path fill="#3E3A39" d="M1063.242,284.106c-0.107-0.613-0.324-1.261-1.692-1.261s-1.548,0.522-1.548,0.937
		c0,1.512,5.995,0.414,5.995,3.943c0,2.791-2.7,3.295-4.195,3.295c-2.179,0-4.537-0.756-4.609-3.313h2.593
		c0,0.811,0.504,1.405,2.089,1.405c1.296,0,1.603-0.631,1.603-0.991c0-1.603-5.941-0.396-5.941-3.979
		c0-1.404,0.882-3.205,3.871-3.205c1.872,0,4.104,0.469,4.303,3.17H1063.242z"/>
	<path fill="#3E3A39" d="M1076.473,290.768h-2.412v-1.352h-0.036c-0.576,1.027-1.585,1.604-2.917,1.604
		c-1.891,0-3.259-1.08-3.259-3.529v-6.303h2.521v5.942c0,1.477,0.864,1.765,1.639,1.765c0.828,0,1.944-0.469,1.944-2.179v-5.528
		h2.521V290.768z"/>
	<path fill="#3E3A39" d="M1081.422,290.768h-2.521V277.84h2.521V290.768z"/>
	<path fill="#3E3A39" d="M1086.659,281.188h1.566v1.801h-1.566v5.204c0,0.558,0.019,0.774,1.044,0.774
		c0.162,0,0.343-0.018,0.522-0.036v1.909c-0.396,0.018-0.792,0.035-1.188,0.035h-0.324c-2.178,0-2.574-0.828-2.574-2.07v-5.816
		h-1.297v-1.801h1.297v-2.592h2.521V281.188z"/>
</g>
<g>
	<path fill="#3E3A39" d="M994.77,80.92c0.018,0.72,0.377,2.088,2.736,2.088c1.278,0,2.701-0.306,2.701-1.674
		c0-1.008-0.973-1.278-2.341-1.603l-1.387-0.324c-2.089-0.486-4.104-0.954-4.104-3.799c0-1.44,0.773-3.979,4.969-3.979
		c3.961,0,5.023,2.593,5.041,4.177h-2.592c-0.072-0.576-0.289-1.944-2.646-1.944c-1.027,0-2.252,0.378-2.252,1.548
		c0,1.008,0.828,1.224,1.369,1.35l3.15,0.774c1.766,0.432,3.385,1.152,3.385,3.475c0,3.889-3.961,4.231-5.095,4.231
		c-4.718,0-5.528-2.719-5.528-4.321H994.77z"/>
	<path fill="#3E3A39" d="M1012.879,82.09c-0.666,2.305-2.574,3.061-4.213,3.061c-2.701,0-4.771-1.296-4.771-5.239
		c0-1.152,0.396-4.844,4.591-4.844c1.891,0,4.501,0.9,4.501,5.276v0.45h-6.571c0.071,0.721,0.216,2.341,2.251,2.341
		c0.701,0,1.422-0.36,1.62-1.044H1012.879z M1010.395,79.155c-0.145-1.548-1.135-2.017-1.945-2.017
		c-1.188,0-1.818,0.756-1.963,2.017H1010.395z"/>
	<path fill="#3E3A39" d="M1014.641,75.32h2.412v1.657h0.036c0.522-0.972,1.099-1.909,2.629-1.909c0.162,0,0.323,0.018,0.485,0.036
		v2.557c-0.215-0.036-0.485-0.036-0.72-0.036c-1.962,0-2.323,1.225-2.323,2.287v4.987h-2.52V75.32z"/>
	<path fill="#3E3A39" d="M1026.99,84.899h-2.646l-3.439-9.579h2.809l1.98,7.059h0.036l2.034-7.059h2.684L1026.99,84.899z"/>
	<path fill="#3E3A39" d="M1040.076,82.09c-0.666,2.305-2.574,3.061-4.213,3.061c-2.701,0-4.771-1.296-4.771-5.239
		c0-1.152,0.396-4.844,4.592-4.844c1.891,0,4.501,0.9,4.501,5.276v0.45h-6.571c0.071,0.721,0.215,2.341,2.25,2.341
		c0.702,0,1.422-0.36,1.621-1.044H1040.076z M1037.592,79.155c-0.145-1.548-1.135-2.017-1.945-2.017
		c-1.188,0-1.818,0.756-1.962,2.017H1037.592z"/>
	<path fill="#3E3A39" d="M1041.838,75.32h2.412v1.657h0.037c0.521-0.972,1.098-1.909,2.629-1.909c0.162,0,0.324,0.018,0.485,0.036
		v2.557c-0.216-0.036-0.485-0.036-0.72-0.036c-1.963,0-2.322,1.225-2.322,2.287v4.987h-2.521V75.32z"/>
	<path fill="#3E3A39" d="M1059.281,78.237c-0.107-0.612-0.324-1.26-1.692-1.26s-1.548,0.522-1.548,0.936
		c0,1.513,5.995,0.415,5.995,3.943c0,2.791-2.7,3.295-4.195,3.295c-2.179,0-4.537-0.756-4.609-3.313h2.593
		c0,0.811,0.504,1.405,2.089,1.405c1.296,0,1.603-0.63,1.603-0.991c0-1.602-5.941-0.396-5.941-3.979
		c0-1.404,0.882-3.205,3.871-3.205c1.872,0,4.105,0.468,4.303,3.169H1059.281z"/>
	<path fill="#3E3A39" d="M1066.697,75.32h1.566v1.801h-1.566v5.204c0,0.558,0.018,0.774,1.044,0.774
		c0.162,0,0.343-0.018,0.522-0.036v1.909c-0.396,0.018-0.793,0.036-1.188,0.036h-0.324c-2.179,0-2.575-0.828-2.575-2.07v-5.816
		h-1.296V75.32h1.296v-2.593h2.521V75.32z"/>
	<path fill="#3E3A39" d="M1078.506,84.899h-2.412v-1.351h-0.036c-0.576,1.026-1.585,1.603-2.917,1.603
		c-1.891,0-3.259-1.08-3.259-3.529V75.32h2.521v5.942c0,1.477,0.864,1.765,1.639,1.765c0.828,0,1.944-0.468,1.944-2.179V75.32h2.521
		V84.899z"/>
	<path fill="#3E3A39" d="M1083.311,76.563h0.036c0.396-0.612,1.152-1.495,2.772-1.495c2.107,0,3.979,1.621,3.979,4.934
		c0,2.629-1.188,5.149-4.033,5.149c-1.044,0-2.161-0.378-2.772-1.458h-0.037v1.207h-2.467V71.971h2.521V76.563z M1085.363,77.247
		c-1.729,0-2.16,1.548-2.16,3.079c0,1.422,0.629,2.755,2.232,2.755c1.62,0,2.07-1.765,2.07-2.899
		C1087.506,78.669,1086.965,77.247,1085.363,77.247z"/>
</g>
<rect x="1161.74" y="95.899" fill="#F2A1AA" stroke="#898989" stroke-miterlimit="10" width="150" height="250"/>
<g>
	<path fill="#3E3A39" d="M1229.849,139.874c-0.216-0.774-0.63-2.232-2.862-2.232c-1.297,0-3.205,0.864-3.205,4.519
		c0,2.323,0.918,4.412,3.205,4.412c1.494,0,2.538-0.846,2.862-2.431h2.701c-0.54,2.809-2.377,4.771-5.618,4.771
		c-3.439,0-5.905-2.323-5.905-6.788c0-4.52,2.61-6.824,5.941-6.824c3.871,0,5.438,2.665,5.582,4.573H1229.849z"/>
	<path fill="#3E3A39" d="M1242.16,146.698c0,1.134,0.252,1.386,0.559,1.495v0.378H1240c-0.145-0.45-0.181-0.594-0.234-1.134
		c-0.576,0.594-1.387,1.386-3.098,1.386c-1.439,0-2.916-0.81-2.916-2.791c0-1.873,1.188-2.827,2.791-3.061l2.268-0.342
		c0.396-0.054,0.883-0.216,0.883-0.756c0-1.062-1.008-1.116-1.656-1.116c-1.261,0-1.477,0.774-1.549,1.333h-2.431
		c0.288-2.935,2.323-3.349,4.285-3.349c1.351,0,3.817,0.414,3.817,2.773V146.698z M1239.693,143.907
		c-0.252,0.198-0.666,0.36-1.711,0.522c-0.936,0.162-1.71,0.396-1.71,1.44c0,0.882,0.685,1.152,1.171,1.152
		c1.115,0,2.25-0.72,2.25-1.891V143.907z"/>
	<path fill="#3E3A39" d="M1247.001,148.57h-2.521v-12.928h2.521V148.57z"/>
	<path fill="#3E3A39" d="M1252.005,148.57h-2.521v-12.928h2.521V148.57z"/>
</g>
<g>
	<path fill="#3E3A39" d="M1209.111,277.84h6.535c3.439,0,4.069,2.538,4.069,3.654c0,1.422-0.72,2.646-1.999,3.079
		c1.063,0.468,1.639,0.864,1.639,3.276c0,1.891,0,2.359,0.576,2.575v0.343h-2.988c-0.181-0.613-0.289-1.279-0.289-2.611
		c0-1.765-0.107-2.449-2.105-2.449h-2.791v5.061h-2.646V277.84z M1214.926,283.53c1.404,0,2.09-0.486,2.09-1.766
		c0-0.684-0.307-1.691-1.891-1.691h-3.367v3.457H1214.926z"/>
	<path fill="#3E3A39" d="M1230.137,287.959c-0.666,2.305-2.574,3.061-4.213,3.061c-2.701,0-4.771-1.297-4.771-5.24
		c0-1.152,0.396-4.844,4.591-4.844c1.891,0,4.501,0.9,4.501,5.276v0.45h-6.571c0.071,0.721,0.216,2.34,2.251,2.34
		c0.701,0,1.422-0.359,1.62-1.043H1230.137z M1227.652,285.024c-0.145-1.549-1.135-2.017-1.945-2.017
		c-1.188,0-1.818,0.757-1.963,2.017H1227.652z"/>
	<path fill="#3E3A39" d="M1234.743,281.188h1.566v1.801h-1.566v5.204c0,0.558,0.019,0.774,1.044,0.774
		c0.162,0,0.343-0.018,0.522-0.036v1.909c-0.396,0.018-0.792,0.035-1.188,0.035h-0.324c-2.178,0-2.574-0.828-2.574-2.07v-5.816
		h-1.297v-1.801h1.297v-2.592h2.521V281.188z"/>
	<path fill="#3E3A39" d="M1246.553,290.768h-2.412v-1.352h-0.037c-0.576,1.027-1.584,1.604-2.916,1.604
		c-1.891,0-3.26-1.08-3.26-3.529v-6.303h2.521v5.942c0,1.477,0.863,1.765,1.639,1.765c0.828,0,1.943-0.469,1.943-2.179v-5.528h2.521
		V290.768z"/>
	<path fill="#3E3A39" d="M1248.891,281.188h2.412v1.657h0.036c0.522-0.972,1.099-1.909,2.629-1.909c0.162,0,0.323,0.019,0.485,0.037
		v2.557c-0.215-0.037-0.485-0.037-0.72-0.037c-1.962,0-2.323,1.225-2.323,2.287v4.988h-2.52V281.188z"/>
	<path fill="#3E3A39" d="M1264.57,290.768h-2.521v-5.816c0-0.702-0.036-1.891-1.638-1.891c-1.117,0-1.981,0.756-1.981,2.215v5.492
		h-2.521v-9.58h2.412v1.405h0.037c0.342-0.576,1.063-1.657,2.881-1.657c1.872,0,3.33,1.1,3.33,3.205V290.768z"/>
</g>
<g>
	<path fill="#3E3A39" d="M1211.928,80.92c0.019,0.72,0.379,2.088,2.737,2.088c1.278,0,2.7-0.306,2.7-1.674
		c0-1.008-0.972-1.278-2.34-1.603l-1.387-0.324c-2.088-0.486-4.105-0.954-4.105-3.799c0-1.44,0.774-3.979,4.97-3.979
		c3.962,0,5.023,2.593,5.042,4.177h-2.594c-0.071-0.576-0.287-1.944-2.646-1.944c-1.025,0-2.25,0.378-2.25,1.548
		c0,1.008,0.828,1.224,1.368,1.35l3.151,0.774c1.764,0.432,3.385,1.152,3.385,3.475c0,3.889-3.961,4.231-5.096,4.231
		c-4.717,0-5.527-2.719-5.527-4.321H1211.928z"/>
	<path fill="#3E3A39" d="M1230.038,82.09c-0.667,2.305-2.575,3.061-4.214,3.061c-2.7,0-4.771-1.296-4.771-5.239
		c0-1.152,0.396-4.844,4.592-4.844c1.891,0,4.502,0.9,4.502,5.276v0.45h-6.572c0.072,0.721,0.216,2.341,2.25,2.341
		c0.703,0,1.423-0.36,1.621-1.044H1230.038z M1227.553,79.155c-0.144-1.548-1.134-2.017-1.943-2.017
		c-1.189,0-1.819,0.756-1.963,2.017H1227.553z"/>
	<path fill="#3E3A39" d="M1231.799,75.32h2.413v1.657h0.036c0.521-0.972,1.098-1.909,2.629-1.909c0.162,0,0.324,0.018,0.486,0.036
		v2.557c-0.217-0.036-0.486-0.036-0.721-0.036c-1.963,0-2.322,1.225-2.322,2.287v4.987h-2.521V75.32z"/>
	<path fill="#3E3A39" d="M1244.148,84.899h-2.646l-3.439-9.579h2.81l1.98,7.059h0.036l2.035-7.059h2.682L1244.148,84.899z"/>
	<path fill="#3E3A39" d="M1257.236,82.09c-0.667,2.305-2.575,3.061-4.214,3.061c-2.7,0-4.771-1.296-4.771-5.239
		c0-1.152,0.396-4.844,4.591-4.844c1.891,0,4.502,0.9,4.502,5.276v0.45h-6.572c0.072,0.721,0.217,2.341,2.251,2.341
		c0.702,0,1.423-0.36,1.62-1.044H1257.236z M1254.751,79.155c-0.144-1.548-1.134-2.017-1.944-2.017
		c-1.188,0-1.818,0.756-1.963,2.017H1254.751z"/>
	<path fill="#3E3A39" d="M1258.997,75.32h2.413v1.657h0.035c0.522-0.972,1.099-1.909,2.629-1.909c0.162,0,0.324,0.018,0.486,0.036
		v2.557c-0.216-0.036-0.486-0.036-0.721-0.036c-1.962,0-2.322,1.225-2.322,2.287v4.987h-2.521V75.32z"/>
</g>
<g>
	<path fill="#3E3A39" d="M1215.014,205.971h2.881c1.656,7.076,1.818,7.977,2.053,9.453h0.037c0.232-1.351,0.432-2.665,1.801-9.453
		h2.861c1.514,7.094,1.639,7.778,1.928,9.453h0.035c0.217-1.225,0.432-2.342,2.107-9.453h2.736l-3.637,12.928h-2.594
		c-1.332-6.338-1.566-7.598-1.998-10.083h-0.035c-0.396,2.485-0.613,3.421-2,10.083h-2.52L1215.014,205.971z"/>
	<path fill="#3E3A39" d="M1236.148,219.151c-2.576,0-4.898-1.584-4.898-5.041c0-3.458,2.322-5.042,4.898-5.042
		c2.574,0,4.896,1.584,4.896,5.042C1241.045,217.567,1238.723,219.151,1236.148,219.151z M1236.148,211.193
		c-1.945,0-2.305,1.692-2.305,2.917s0.359,2.916,2.305,2.916c1.943,0,2.305-1.691,2.305-2.916S1238.092,211.193,1236.148,211.193z"
		/>
	<path fill="#3E3A39" d="M1242.787,209.32h2.414v1.657h0.035c0.521-0.972,1.098-1.909,2.629-1.909c0.162,0,0.324,0.018,0.486,0.036
		v2.557c-0.217-0.036-0.486-0.036-0.721-0.036c-1.963,0-2.322,1.225-2.322,2.287v4.987h-2.521V209.32z"/>
	<path fill="#3E3A39" d="M1252.4,218.899h-2.521v-12.928h2.521v6.986l3.168-3.638h3.098l-3.385,3.71l3.475,5.869h-3.025
		l-2.285-4.105l-1.045,1.08V218.899z"/>
</g>
<g>
	<g>
		<g>
			<polygon fill="#3E3A39" points="919.98,145.034 954.732,145.034 954.732,148.811 964.98,142.891 954.732,136.972 954.732,140.75 
				919.98,140.75 			"/>
		</g>
	</g>
</g>
<g>
	<g>
		<g>
			<polygon fill="#3E3A39" points="1115.98,145.034 1150.732,145.034 1150.732,148.811 1160.98,142.891 1150.732,136.972 
				1150.732,140.75 1115.98,140.75 			"/>
		</g>
	</g>
</g>
<g>
	<g>
		<g>
			<polygon fill="#3E3A39" points="964.98,282.947 930.229,282.947 930.229,279.168 919.98,285.088 930.229,291.008 
				930.229,287.231 964.98,287.231 			"/>
		</g>
	</g>
</g>
<g>
	<g>
		<g>
			<polygon fill="#3E3A39" points="1160.98,282.947 1126.229,282.947 1126.229,279.168 1115.98,285.088 1126.229,291.008 
				1126.229,287.231 1160.98,287.231 			"/>
		</g>
	</g>
</g>
<g>
	<g>
		<g>
			<polygon fill="#3E3A39" points="1234.599,161.645 1234.599,181.336 1230.82,181.336 1236.74,191.584 1242.66,181.336 
				1238.883,181.336 1238.883,161.645 			"/>
		</g>
	</g>
</g>
<g>
	<g>
		<g>
			<polygon fill="#3E3A39" points="1234.599,235.626 1234.599,255.317 1230.82,255.317 1236.74,265.565 1242.66,255.317 
				1238.883,255.317 1238.883,235.626 			"/>
		</g>
	</g>
</g>
<rect x="19.75" y="40.768" fill="none" stroke="#898989" stroke-miterlimit="10" width="577.261" height="324.631"/>
<g>
	<path fill="#3E3A39" d="M287.85,18.306c-0.288-1.032-0.84-2.977-3.816-2.977c-1.729,0-4.272,1.152-4.272,6.024
		c0,3.097,1.224,5.881,4.272,5.881c1.992,0,3.384-1.128,3.816-3.24h3.601c-0.72,3.744-3.168,6.36-7.489,6.36
		c-4.584,0-7.873-3.096-7.873-9.049c0-6.024,3.48-9.097,7.92-9.097c5.161,0,7.249,3.552,7.441,6.097H287.85z"/>
	<path fill="#3E3A39" d="M304.266,27.403c0,1.512,0.336,1.848,0.744,1.992v0.504h-3.624c-0.192-0.6-0.24-0.792-0.312-1.512
		c-0.768,0.792-1.848,1.848-4.128,1.848c-1.92,0-3.888-1.08-3.888-3.72c0-2.496,1.584-3.769,3.72-4.081l3.024-0.456
		c0.528-0.072,1.176-0.288,1.176-1.008c0-1.416-1.344-1.488-2.208-1.488c-1.68,0-1.968,1.032-2.064,1.776h-3.24
		c0.384-3.913,3.096-4.464,5.712-4.464c1.8,0,5.088,0.552,5.088,3.696V27.403z M300.978,23.683c-0.336,0.264-0.888,0.48-2.28,0.696
		c-1.248,0.216-2.28,0.528-2.28,1.92c0,1.176,0.912,1.536,1.561,1.536c1.488,0,3-0.96,3-2.521V23.683z"/>
	<path fill="#3E3A39" d="M310.722,29.899h-3.36V12.666h3.36V29.899z"/>
	<path fill="#3E3A39" d="M317.394,29.899h-3.36V12.666h3.36V29.899z"/>
	<path fill="#3E3A39" d="M331.578,26.155c-0.888,3.072-3.433,4.08-5.617,4.08c-3.6,0-6.36-1.728-6.36-6.984
		c0-1.536,0.528-6.457,6.12-6.457c2.521,0,6,1.2,6,7.032v0.6h-8.761c0.096,0.96,0.288,3.121,3,3.121c0.936,0,1.896-0.48,2.16-1.392
		H331.578z M328.266,22.242c-0.192-2.064-1.512-2.688-2.592-2.688c-1.584,0-2.424,1.008-2.616,2.688H328.266z"/>
	<path fill="#3E3A39" d="M333.929,17.13h3.216v2.208h0.048c0.696-1.296,1.464-2.544,3.504-2.544c0.216,0,0.432,0.024,0.648,0.048
		v3.408c-0.288-0.048-0.648-0.048-0.96-0.048c-2.616,0-3.096,1.632-3.096,3.048v6.648h-3.36V17.13z"/>
</g>
<rect x="752.451" y="39.768" fill="none" stroke="#898989" stroke-miterlimit="10" width="577.262" height="324.631"/>
<g>
	<path fill="#3E3A39" d="M1020.551,17.306c-0.287-1.032-0.84-2.977-3.815-2.977c-1.729,0-4.272,1.152-4.272,6.024
		c0,3.097,1.225,5.881,4.272,5.881c1.992,0,3.384-1.128,3.815-3.24h3.602c-0.721,3.744-3.169,6.36-7.489,6.36
		c-4.585,0-7.872-3.096-7.872-9.049c0-6.024,3.48-9.097,7.92-9.097c5.16,0,7.249,3.552,7.441,6.097H1020.551z"/>
	<path fill="#3E3A39" d="M1036.967,26.403c0,1.512,0.336,1.848,0.744,1.992v0.504h-3.624c-0.192-0.6-0.24-0.792-0.312-1.512
		c-0.769,0.792-1.849,1.848-4.129,1.848c-1.92,0-3.889-1.08-3.889-3.72c0-2.496,1.584-3.769,3.721-4.081l3.023-0.456
		c0.529-0.072,1.177-0.288,1.177-1.008c0-1.416-1.345-1.488-2.208-1.488c-1.68,0-1.969,1.032-2.064,1.776h-3.24
		c0.385-3.913,3.096-4.464,5.713-4.464c1.8,0,5.088,0.552,5.088,3.696V26.403z M1033.679,22.683c-0.336,0.264-0.888,0.48-2.28,0.696
		c-1.248,0.216-2.28,0.528-2.28,1.92c0,1.176,0.912,1.536,1.561,1.536c1.487,0,3-0.96,3-2.521V22.683z"/>
	<path fill="#3E3A39" d="M1043.423,28.899h-3.36V11.666h3.36V28.899z"/>
	<path fill="#3E3A39" d="M1050.095,28.899h-3.36V11.666h3.36V28.899z"/>
	<path fill="#3E3A39" d="M1064.279,25.155c-0.889,3.072-3.433,4.08-5.617,4.08c-3.6,0-6.359-1.728-6.359-6.984
		c0-1.536,0.527-6.457,6.119-6.457c2.521,0,6.001,1.2,6.001,7.032v0.6h-8.761c0.096,0.96,0.288,3.121,3,3.121
		c0.937,0,1.896-0.48,2.16-1.392H1064.279z M1060.967,21.242c-0.191-2.064-1.512-2.688-2.592-2.688
		c-1.584,0-2.425,1.008-2.617,2.688H1060.967z"/>
	<path fill="#3E3A39" d="M1077.623,25.155c-0.889,3.072-3.433,4.08-5.617,4.08c-3.6,0-6.359-1.728-6.359-6.984
		c0-1.536,0.527-6.457,6.119-6.457c2.521,0,6.001,1.2,6.001,7.032v0.6h-8.761c0.096,0.96,0.288,3.121,3,3.121
		c0.937,0,1.896-0.48,2.16-1.392H1077.623z M1074.311,21.242c-0.191-2.064-1.512-2.688-2.592-2.688
		c-1.584,0-2.425,1.008-2.617,2.688H1074.311z"/>
</g>
<g>
	<g>
		<g>
			<polygon fill="#3E3A39" points="578.715,145.034 759.436,145.034 759.436,148.811 769.684,142.891 759.436,136.972 
				759.436,140.75 578.715,140.75 			"/>
		</g>
	</g>
</g>
<g>
	<path fill="#3E3A39" d="M637.633,123.369c-0.217-0.774-0.631-2.232-2.863-2.232c-1.295,0-3.205,0.864-3.205,4.52
		c0,2.322,0.92,4.411,3.205,4.411c1.494,0,2.539-0.846,2.863-2.431h2.701c-0.541,2.809-2.377,4.771-5.617,4.771
		c-3.439,0-5.906-2.323-5.906-6.788c0-4.52,2.611-6.824,5.941-6.824c3.871,0,5.438,2.665,5.582,4.573H637.633z"/>
	<path fill="#3E3A39" d="M649.945,130.193c0,1.134,0.252,1.386,0.559,1.495v0.378h-2.719c-0.145-0.45-0.182-0.594-0.234-1.134
		c-0.576,0.594-1.387,1.386-3.098,1.386c-1.439,0-2.916-0.81-2.916-2.791c0-1.873,1.188-2.827,2.791-3.061l2.268-0.342
		c0.396-0.054,0.883-0.216,0.883-0.756c0-1.063-1.008-1.117-1.656-1.117c-1.262,0-1.477,0.774-1.549,1.333h-2.432
		c0.289-2.935,2.324-3.349,4.285-3.349c1.352,0,3.818,0.414,3.818,2.773V130.193z M647.479,127.402
		c-0.252,0.198-0.666,0.36-1.711,0.522c-0.936,0.162-1.711,0.396-1.711,1.44c0,0.882,0.686,1.152,1.17,1.152
		c1.117,0,2.252-0.72,2.252-1.891V127.402z"/>
	<path fill="#3E3A39" d="M654.785,132.066h-2.521v-12.928h2.521V132.066z"/>
	<path fill="#3E3A39" d="M659.789,132.066h-2.521v-12.928h2.521V132.066z"/>
	<path fill="#3E3A39" d="M669.563,123.874h0.037c0.467-0.756,1.17-1.639,2.861-1.639c2.107,0,3.98,1.621,3.98,4.934
		c0,2.629-1.189,5.149-4.033,5.149c-1.766,0-2.395-0.954-2.701-1.476h-0.037v4.951h-2.52v-13.306h2.412V123.874z M671.777,130.248
		c1.621,0,2.07-1.765,2.07-2.899c0-1.513-0.539-2.935-2.143-2.935c-1.729,0-2.143,1.548-2.143,3.079
		C669.563,128.915,670.176,130.248,671.777,130.248z"/>
	<path fill="#3E3A39" d="M685.963,130.193c0,1.134,0.252,1.386,0.559,1.495v0.378h-2.719c-0.145-0.45-0.182-0.594-0.234-1.134
		c-0.576,0.594-1.387,1.386-3.098,1.386c-1.439,0-2.916-0.81-2.916-2.791c0-1.873,1.188-2.827,2.791-3.061l2.268-0.342
		c0.396-0.054,0.883-0.216,0.883-0.756c0-1.063-1.008-1.117-1.656-1.117c-1.262,0-1.477,0.774-1.549,1.333h-2.432
		c0.289-2.935,2.324-3.349,4.285-3.349c1.352,0,3.818,0.414,3.818,2.773V130.193z M683.496,127.402
		c-0.252,0.198-0.666,0.36-1.711,0.522c-0.936,0.162-1.711,0.396-1.711,1.44c0,0.882,0.686,1.152,1.17,1.152
		c1.117,0,2.252-0.72,2.252-1.891V127.402z"/>
	<path fill="#3E3A39" d="M696.457,128.573c-0.09,0.99-0.865,3.745-4.375,3.745c-3.602,0-4.43-2.755-4.43-4.771
		c0-3.097,1.35-5.312,4.59-5.312c1.514,0,3.998,0.684,4.232,3.673h-2.557c-0.107-0.63-0.504-1.621-1.676-1.549
		c-1.584,0-1.998,1.585-1.998,2.773c0,1.044,0.037,3.115,1.945,3.115c1.277,0,1.711-1.225,1.711-1.675H696.457z"/>
	<path fill="#3E3A39" d="M700.451,132.066h-2.521v-12.928h2.521v6.986l3.168-3.637h3.098l-3.385,3.709l3.475,5.87h-3.025
		l-2.285-4.105l-1.045,1.08V132.066z"/>
	<path fill="#3E3A39" d="M716.094,129.257c-0.666,2.305-2.574,3.061-4.213,3.061c-2.701,0-4.771-1.296-4.771-5.239
		c0-1.152,0.396-4.844,4.592-4.844c1.891,0,4.502,0.9,4.502,5.276v0.45h-6.572c0.072,0.72,0.217,2.34,2.25,2.34
		c0.703,0,1.424-0.36,1.621-1.044H716.094z M713.609,126.322c-0.143-1.548-1.135-2.017-1.943-2.017
		c-1.189,0-1.818,0.756-1.963,2.017H713.609z"/>
	<path fill="#3E3A39" d="M720.701,122.487h1.566v1.8h-1.566v5.204c0,0.558,0.018,0.774,1.045,0.774c0.16,0,0.342-0.018,0.521-0.036
		v1.908c-0.396,0.018-0.793,0.036-1.189,0.036h-0.324c-2.178,0-2.574-0.828-2.574-2.07v-5.816h-1.297v-1.8h1.297v-2.593h2.521
		V122.487z"/>
</g>
<g>
	<g>
		<g>
			<polygon fill="#3E3A39" points="768.918,282.947 588.197,282.947 588.197,279.168 577.949,285.088 588.197,291.008 
				588.197,287.231 768.918,287.231 			"/>
		</g>
	</g>
</g>
<g>
	<path fill="#3E3A39" d="M616.463,294.804H623c3.439,0,4.068,2.539,4.068,3.655c0,1.422-0.721,2.646-1.998,3.078
		c1.063,0.469,1.639,0.865,1.639,3.277c0,1.891,0,2.358,0.576,2.575v0.342h-2.988c-0.182-0.612-0.289-1.278-0.289-2.61
		c0-1.765-0.107-2.449-2.107-2.449h-2.789v5.06h-2.648V294.804z M622.279,300.494c1.404,0,2.088-0.486,2.088-1.765
		c0-0.684-0.305-1.692-1.891-1.692h-3.365v3.457H622.279z"/>
	<path fill="#3E3A39" d="M637.49,304.923c-0.666,2.305-2.574,3.061-4.213,3.061c-2.701,0-4.771-1.296-4.771-5.239
		c0-1.152,0.396-4.844,4.592-4.844c1.891,0,4.5,0.9,4.5,5.275v0.45h-6.572c0.072,0.721,0.217,2.341,2.252,2.341
		c0.701,0,1.422-0.36,1.619-1.044H637.49z M635.006,301.988c-0.145-1.548-1.135-2.017-1.945-2.017c-1.188,0-1.818,0.757-1.963,2.017
		H635.006z"/>
	<path fill="#3E3A39" d="M644.689,301.07c-0.109-0.612-0.324-1.261-1.693-1.261c-1.367,0-1.549,0.522-1.549,0.937
		c0,1.513,5.996,0.414,5.996,3.943c0,2.791-2.701,3.295-4.195,3.295c-2.178,0-4.537-0.756-4.609-3.313h2.594
		c0,0.81,0.504,1.404,2.088,1.404c1.297,0,1.604-0.631,1.604-0.99c0-1.603-5.943-0.396-5.943-3.979c0-1.404,0.883-3.205,3.871-3.205
		c1.873,0,4.105,0.469,4.305,3.169H644.689z"/>
	<path fill="#3E3A39" d="M657.92,307.732h-2.412v-1.351h-0.037c-0.576,1.026-1.584,1.603-2.916,1.603c-1.891,0-3.26-1.08-3.26-3.529
		v-6.302h2.521v5.942c0,1.476,0.863,1.765,1.639,1.765c0.828,0,1.943-0.469,1.943-2.179v-5.528h2.521V307.732z"/>
	<path fill="#3E3A39" d="M662.867,307.732h-2.52v-12.928h2.52V307.732z"/>
	<path fill="#3E3A39" d="M668.105,298.153h1.566v1.801h-1.566v5.203c0,0.559,0.02,0.774,1.045,0.774
		c0.162,0,0.342-0.018,0.521-0.036v1.909c-0.395,0.018-0.791,0.036-1.188,0.036h-0.324c-2.18,0-2.574-0.828-2.574-2.071v-5.815
		h-1.297v-1.801h1.297v-2.593h2.52V298.153z"/>
	<path fill="#3E3A39" d="M678.637,299.54h0.035c0.469-0.756,1.17-1.639,2.863-1.639c2.105,0,3.979,1.621,3.979,4.934
		c0,2.629-1.188,5.149-4.033,5.149c-1.764,0-2.395-0.954-2.701-1.477h-0.035v4.952h-2.521v-13.307h2.414V299.54z M680.852,305.914
		c1.619,0,2.07-1.765,2.07-2.899c0-1.512-0.541-2.935-2.143-2.935c-1.729,0-2.143,1.549-2.143,3.079
		C678.637,304.581,679.248,305.914,680.852,305.914z"/>
	<path fill="#3E3A39" d="M695.035,305.86c0,1.134,0.252,1.386,0.559,1.494v0.378h-2.719c-0.145-0.45-0.18-0.594-0.234-1.135
		c-0.576,0.595-1.387,1.387-3.096,1.387c-1.441,0-2.918-0.811-2.918-2.791c0-1.872,1.189-2.826,2.791-3.061l2.27-0.342
		c0.395-0.055,0.881-0.217,0.881-0.757c0-1.063-1.008-1.116-1.656-1.116c-1.26,0-1.477,0.774-1.549,1.333h-2.43
		c0.287-2.936,2.322-3.35,4.285-3.35c1.35,0,3.816,0.414,3.816,2.773V305.86z M692.568,303.069
		c-0.252,0.197-0.666,0.359-1.711,0.521c-0.936,0.162-1.709,0.396-1.709,1.44c0,0.883,0.684,1.152,1.17,1.152
		c1.115,0,2.25-0.72,2.25-1.891V303.069z"/>
	<path fill="#3E3A39" d="M705.529,304.239c-0.09,0.99-0.863,3.745-4.375,3.745c-3.602,0-4.43-2.755-4.43-4.771
		c0-3.097,1.352-5.312,4.592-5.312c1.512,0,3.998,0.685,4.23,3.673h-2.557c-0.107-0.63-0.504-1.62-1.674-1.548
		c-1.584,0-1.998,1.584-1.998,2.772c0,1.044,0.035,3.115,1.943,3.115c1.279,0,1.711-1.225,1.711-1.675H705.529z"/>
	<path fill="#3E3A39" d="M709.523,307.732h-2.521v-12.928h2.521v6.986l3.168-3.638h3.098l-3.385,3.709l3.475,5.87h-3.025
		l-2.285-4.105l-1.045,1.081V307.732z"/>
	<path fill="#3E3A39" d="M725.168,304.923c-0.666,2.305-2.574,3.061-4.213,3.061c-2.701,0-4.771-1.296-4.771-5.239
		c0-1.152,0.396-4.844,4.592-4.844c1.891,0,4.5,0.9,4.5,5.275v0.45h-6.572c0.072,0.721,0.217,2.341,2.252,2.341
		c0.701,0,1.422-0.36,1.619-1.044H725.168z M722.684,301.988c-0.145-1.548-1.135-2.017-1.945-2.017
		c-1.188,0-1.818,0.757-1.963,2.017H722.684z"/>
	<path fill="#3E3A39" d="M729.773,298.153h1.566v1.801h-1.566v5.203c0,0.559,0.02,0.774,1.045,0.774
		c0.162,0,0.342-0.018,0.521-0.036v1.909c-0.395,0.018-0.791,0.036-1.188,0.036h-0.324c-2.18,0-2.574-0.828-2.574-2.071v-5.815
		h-1.297v-1.801h1.297v-2.593h2.52V298.153z"/>
</g>
<g>
</g>
<g>
</g>
<g>
</g>
<g>
</g>
<g>
</g>
<g>
</g>
</svg>
