<?xml version="1.0" encoding="UTF-8" standalone="no"?><svg xmlns="http://www.w3.org/2000/svg" xmlns:xlink="http://www.w3.org/1999/xlink" contentScriptType="application/ecmascript" contentStyleType="text/css" height="254px" preserveAspectRatio="none" style="width:445px;height:254px;" version="1.1" viewBox="0 0 445 254" width="445px" zoomAndPan="magnify"><defs/><g><!--MD5=[2114ea4e2701aac4ae8c41d97e9bdd3d]
class AbstractVehicle--><rect fill="#FEFECE" height="62.4063" id="AbstractVehicle" style="stroke: #A80036; stroke-width: 1.5;" width="117" x="77" y="16.5"/><ellipse cx="91" cy="31.5" fill="#ADD1B2" rx="10" ry="10" style="stroke: #A80036; stroke-width: 1.0;"/><path d="M93.3896,36.2061 Q92.9111,36.4521 92.3848,36.5752 Q91.8584,36.6982 91.2773,36.6982 Q89.2129,36.6982 88.126,35.3379 Q87.0391,33.9775 87.0391,31.4072 Q87.0391,28.8301 88.126,27.4697 Q89.2129,26.1094 91.2773,26.1094 Q91.8584,26.1094 92.3916,26.2324 Q92.9248,26.3555 93.3896,26.6016 L93.3896,28.8438 Q92.8701,28.3652 92.3813,28.1431 Q91.8926,27.9209 91.373,27.9209 Q90.2656,27.9209 89.7017,28.7993 Q89.1377,29.6777 89.1377,31.4072 Q89.1377,33.1299 89.7017,34.0083 Q90.2656,34.8867 91.373,34.8867 Q91.8926,34.8867 92.3813,34.6646 Q92.8701,34.4424 93.3896,33.9639 Z "/><text fill="#000000" font-family="Roboto Condensed" font-size="14" lengthAdjust="spacingAndGlyphs" textLength="87" x="104" y="36.2852">AbstractVehicle</text><line style="stroke: #A80036; stroke-width: 1.5;" x1="78" x2="193" y1="46.5" y2="46.5"/><text fill="#000000" font-family="Roboto Condensed" font-size="14" lengthAdjust="spacingAndGlyphs" textLength="102" x="83" y="63.4883">string licensePlate</text><line style="stroke: #A80036; stroke-width: 1.5;" x1="78" x2="193" y1="70.9063" y2="70.9063"/><!--MD5=[3f0ef310aaa84a542276992c5216544d]
class Car--><rect fill="#FEFECE" height="46" id="Car" style="stroke: #A80036; stroke-width: 1.5;" width="49" x="6" y="181.5"/><ellipse cx="20" cy="196.5" fill="#ADD1B2" rx="10" ry="10" style="stroke: #A80036; stroke-width: 1.0;"/><path d="M22.3896,201.2061 Q21.9111,201.4521 21.3848,201.5752 Q20.8584,201.6982 20.2773,201.6982 Q18.2129,201.6982 17.126,200.3379 Q16.0391,198.9775 16.0391,196.4072 Q16.0391,193.8301 17.126,192.4697 Q18.2129,191.1094 20.2773,191.1094 Q20.8584,191.1094 21.3916,191.2324 Q21.9248,191.3555 22.3896,191.6016 L22.3896,193.8438 Q21.8701,193.3652 21.3813,193.1431 Q20.8926,192.9209 20.373,192.9209 Q19.2656,192.9209 18.7017,193.7993 Q18.1377,194.6777 18.1377,196.4072 Q18.1377,198.1299 18.7017,199.0083 Q19.2656,199.8867 20.373,199.8867 Q20.8926,199.8867 21.3813,199.6646 Q21.8701,199.4424 22.3896,198.9639 Z "/><text fill="#000000" font-family="Roboto Condensed" font-size="14" lengthAdjust="spacingAndGlyphs" textLength="19" x="33" y="201.2852">Car</text><line style="stroke: #A80036; stroke-width: 1.5;" x1="7" x2="54" y1="211.5" y2="211.5"/><line style="stroke: #A80036; stroke-width: 1.5;" x1="7" x2="54" y1="219.5" y2="219.5"/><!--MD5=[810373fc1a93f4d2097b8385b2d2d749]
class Motorcycle--><rect fill="#FEFECE" height="46" id="Motorcycle" style="stroke: #A80036; stroke-width: 1.5;" width="91" x="90" y="181.5"/><ellipse cx="104" cy="196.5" fill="#ADD1B2" rx="10" ry="10" style="stroke: #A80036; stroke-width: 1.0;"/><path d="M106.3896,201.2061 Q105.9111,201.4521 105.3848,201.5752 Q104.8584,201.6982 104.2773,201.6982 Q102.2129,201.6982 101.126,200.3379 Q100.0391,198.9775 100.0391,196.4072 Q100.0391,193.8301 101.126,192.4697 Q102.2129,191.1094 104.2773,191.1094 Q104.8584,191.1094 105.3916,191.2324 Q105.9248,191.3555 106.3896,191.6016 L106.3896,193.8438 Q105.8701,193.3652 105.3813,193.1431 Q104.8926,192.9209 104.373,192.9209 Q103.2656,192.9209 102.7017,193.7993 Q102.1377,194.6777 102.1377,196.4072 Q102.1377,198.1299 102.7017,199.0083 Q103.2656,199.8867 104.373,199.8867 Q104.8926,199.8867 105.3813,199.6646 Q105.8701,199.4424 106.3896,198.9639 Z "/><text fill="#000000" font-family="Roboto Condensed" font-size="14" lengthAdjust="spacingAndGlyphs" textLength="61" x="117" y="201.2852">Motorcycle</text><line style="stroke: #A80036; stroke-width: 1.5;" x1="91" x2="180" y1="211.5" y2="211.5"/><line style="stroke: #A80036; stroke-width: 1.5;" x1="91" x2="180" y1="219.5" y2="219.5"/><!--MD5=[57ba5c3817724c4287498f1d01d81513]
class Bus--><rect fill="#FEFECE" height="46" id="Bus" style="stroke: #A80036; stroke-width: 1.5;" width="51" x="216" y="181.5"/><ellipse cx="230" cy="196.5" fill="#ADD1B2" rx="10" ry="10" style="stroke: #A80036; stroke-width: 1.0;"/><path d="M232.3896,201.2061 Q231.9111,201.4521 231.3848,201.5752 Q230.8584,201.6982 230.2773,201.6982 Q228.2129,201.6982 227.126,200.3379 Q226.0391,198.9775 226.0391,196.4072 Q226.0391,193.8301 227.126,192.4697 Q228.2129,191.1094 230.2773,191.1094 Q230.8584,191.1094 231.3916,191.2324 Q231.9248,191.3555 232.3896,191.6016 L232.3896,193.8438 Q231.8701,193.3652 231.3813,193.1431 Q230.8926,192.9209 230.373,192.9209 Q229.2656,192.9209 228.7017,193.7993 Q228.1377,194.6777 228.1377,196.4072 Q228.1377,198.1299 228.7017,199.0083 Q229.2656,199.8867 230.373,199.8867 Q230.8926,199.8867 231.3813,199.6646 Q231.8701,199.4424 232.3896,198.9639 Z "/><text fill="#000000" font-family="Roboto Condensed" font-size="14" lengthAdjust="spacingAndGlyphs" textLength="21" x="243" y="201.2852">Bus</text><line style="stroke: #A80036; stroke-width: 1.5;" x1="217" x2="266" y1="211.5" y2="211.5"/><line style="stroke: #A80036; stroke-width: 1.5;" x1="217" x2="266" y1="219.5" y2="219.5"/><!--MD5=[8836a49f4083a7550430b1f83332c96a]
class ParkingLot--><rect fill="#FEFECE" height="78.8125" id="ParkingLot" style="stroke: #A80036; stroke-width: 1.5;" width="168" x="266.5" y="8"/><ellipse cx="316.5" cy="23" fill="#ADD1B2" rx="10" ry="10" style="stroke: #A80036; stroke-width: 1.0;"/><path d="M318.8896,27.7061 Q318.4111,27.9521 317.8848,28.0752 Q317.3584,28.1982 316.7773,28.1982 Q314.7129,28.1982 313.626,26.8379 Q312.5391,25.4775 312.5391,22.9072 Q312.5391,20.3301 313.626,18.9697 Q314.7129,17.6094 316.7773,17.6094 Q317.3584,17.6094 317.8916,17.7324 Q318.4248,17.8555 318.8896,18.1016 L318.8896,20.3438 Q318.3701,19.8652 317.8813,19.6431 Q317.3926,19.4209 316.873,19.4209 Q315.7656,19.4209 315.2017,20.2993 Q314.6377,21.1777 314.6377,22.9072 Q314.6377,24.6299 315.2017,25.5083 Q315.7656,26.3867 316.873,26.3867 Q317.3926,26.3867 317.8813,26.1646 Q318.3701,25.9424 318.8896,25.4639 Z "/><text fill="#000000" font-family="Roboto Condensed" font-size="14" lengthAdjust="spacingAndGlyphs" textLength="60" x="335.5" y="27.7852">ParkingLot</text><line style="stroke: #A80036; stroke-width: 1.5;" x1="267.5" x2="433.5" y1="38" y2="38"/><text fill="#000000" font-family="Roboto Condensed" font-size="14" lengthAdjust="spacingAndGlyphs" textLength="78" x="272.5" y="54.9883">string location</text><line style="stroke: #A80036; stroke-width: 1.5;" x1="267.5" x2="433.5" y1="62.4063" y2="62.4063"/><ellipse cx="277.5" cy="73.4063" fill="#84BE84" rx="3" ry="3" style="stroke: #038048; stroke-width: 1.0;"/><text fill="#000000" font-family="Roboto Condensed" font-size="14" lengthAdjust="spacingAndGlyphs" textLength="143" x="285.5" y="79.3945">ParkingSpot parkVehicle()</text><!--MD5=[e8d1d02626a1df80ab81ee14c5101fbd]
class ParkingSpot--><rect fill="#FEFECE" height="78.8125" id="ParkingSpot" style="stroke: #A80036; stroke-width: 1.5;" width="97" x="302" y="165"/><ellipse cx="316" cy="180" fill="#ADD1B2" rx="10" ry="10" style="stroke: #A80036; stroke-width: 1.0;"/><path d="M318.3896,184.7061 Q317.9111,184.9521 317.3848,185.0752 Q316.8584,185.1982 316.2773,185.1982 Q314.2129,185.1982 313.126,183.8379 Q312.0391,182.4775 312.0391,179.9072 Q312.0391,177.3301 313.126,175.9697 Q314.2129,174.6094 316.2773,174.6094 Q316.8584,174.6094 317.3916,174.7324 Q317.9248,174.8555 318.3896,175.1016 L318.3896,177.3438 Q317.8701,176.8652 317.3813,176.6431 Q316.8926,176.4209 316.373,176.4209 Q315.2656,176.4209 314.7017,177.2993 Q314.1377,178.1777 314.1377,179.9072 Q314.1377,181.6299 314.7017,182.5083 Q315.2656,183.3867 316.373,183.3867 Q316.8926,183.3867 317.3813,183.1646 Q317.8701,182.9424 318.3896,182.4639 Z "/><text fill="#000000" font-family="Roboto Condensed" font-size="14" lengthAdjust="spacingAndGlyphs" textLength="67" x="329" y="184.7852">ParkingSpot</text><line style="stroke: #A80036; stroke-width: 1.5;" x1="303" x2="398" y1="195" y2="195"/><text fill="#000000" font-family="Roboto Condensed" font-size="14" lengthAdjust="spacingAndGlyphs" textLength="37" x="308" y="211.9883">long id</text><text fill="#000000" font-family="Roboto Condensed" font-size="14" lengthAdjust="spacingAndGlyphs" textLength="57" x="308" y="228.3945">enum size</text><line style="stroke: #A80036; stroke-width: 1.5;" x1="303" x2="398" y1="235.8125" y2="235.8125"/><!--MD5=[8844bac8287683be6ab3d73e6a098f0c]
reverse link AbstractVehicle to Car--><path d="M103.67,95.48 C84.36,123.99 60.61,159.05 45.51,181.34 " fill="none" id="AbstractVehicle&lt;-Car" style="stroke: #A80036; stroke-width: 1.0;"/><polygon fill="none" points="97.99,91.39,115.01,78.75,109.58,99.24,97.99,91.39" style="stroke: #A80036; stroke-width: 1.0;"/><!--MD5=[a7ca2761083ebaa223a1ae689fc9c593]
reverse link AbstractVehicle to Motorcycle--><path d="M135.5,99.15 C135.5,126.94 135.5,159.99 135.5,181.34 " fill="none" id="AbstractVehicle&lt;-Motorcycle" style="stroke: #A80036; stroke-width: 1.0;"/><polygon fill="none" points="128.5,98.75,135.5,78.75,142.5,98.75,128.5,98.75" style="stroke: #A80036; stroke-width: 1.0;"/><!--MD5=[3709306597d1bdd7ec87a35b1f42936a]
reverse link AbstractVehicle to Bus--><path d="M167.63,95.48 C187.12,123.99 211.1,159.05 226.35,181.34 " fill="none" id="AbstractVehicle&lt;-Bus" style="stroke: #A80036; stroke-width: 1.0;"/><polygon fill="none" points="161.7,99.21,156.19,78.75,173.26,91.31,161.7,99.21" style="stroke: #A80036; stroke-width: 1.0;"/><!--MD5=[2fd9387efa177713ee8e64348b8edf7b]
reverse link ParkingLot to ParkingSpot--><path d="M350.5,100.23 C350.5,121.29 350.5,145.23 350.5,164.74 " fill="none" id="ParkingLot&lt;-ParkingSpot" style="stroke: #A80036; stroke-width: 1.0;"/><polygon fill="#A80036" points="350.5,87.21,346.5,93.21,350.5,99.21,354.5,93.21,350.5,87.21" style="stroke: #A80036; stroke-width: 1.0;"/><text fill="#000000" font-family="Roboto Condensed" font-size="14" lengthAdjust="spacingAndGlyphs" textLength="47" x="351.5" y="130.9883">contains</text><!--MD5=[8a72665aea43da0a161153c8eb55369a]
@startuml
skinparam defaultFontName "Roboto Condensed"
skinparam defaultFontSize 14
skinparam shadowing false

class AbstractVehicle {
  string licensePlate
}
AbstractVehicle <|- - Car
AbstractVehicle <|- - Motorcycle
AbstractVehicle <|- - Bus

class ParkingLot {
  string location
  + ParkingSpot parkVehicle()
}

class ParkingSpot {
  long id
  enum size
}

ParkingLot *- - ParkingSpot : contains
@enduml

PlantUML version 1.2020.00(Sat Jan 11 07:30:53 EST 2020)
(GPL source distribution)
Java Runtime: OpenJDK Runtime Environment
JVM: OpenJDK 64-Bit Server VM
Java Version: 13.0.2+8
Operating System: Mac OS X
Default Encoding: UTF-8
Language: en
Country: CA
--></g></svg>