<?xml version="1.0" encoding="UTF-8" standalone="no"?><svg xmlns="http://www.w3.org/2000/svg" xmlns:xlink="http://www.w3.org/1999/xlink" contentScriptType="application/ecmascript" contentStyleType="text/css" height="253px" preserveAspectRatio="none" style="width:105px;height:253px;" version="1.1" viewBox="0 0 105 253" width="105px" zoomAndPan="magnify"><defs/><g><!--MD5=[3fd616f346a44cd59a91eb10b19e157c]
class User--><rect fill="#FEFECE" height="78.8125" id="User" style="stroke: #A80036; stroke-width: 1.5;" width="78" x="11" y="8"/><ellipse cx="35.35" cy="23" fill="#ADD1B2" rx="10" ry="10" style="stroke: #A80036; stroke-width: 1.0;"/><path d="M37.7396,27.7061 Q37.2611,27.9521 36.7348,28.0752 Q36.2084,28.1982 35.6273,28.1982 Q33.5629,28.1982 32.476,26.8379 Q31.3891,25.4775 31.3891,22.9072 Q31.3891,20.3301 32.476,18.9697 Q33.5629,17.6094 35.6273,17.6094 Q36.2084,17.6094 36.7416,17.7324 Q37.2748,17.8555 37.7396,18.1016 L37.7396,20.3438 Q37.2201,19.8652 36.7313,19.6431 Q36.2426,19.4209 35.723,19.4209 Q34.6156,19.4209 34.0517,20.2993 Q33.4877,21.1777 33.4877,22.9072 Q33.4877,24.6299 34.0517,25.5083 Q34.6156,26.3867 35.723,26.3867 Q36.2426,26.3867 36.7313,26.1646 Q37.2201,25.9424 37.7396,25.4639 Z "/><text fill="#000000" font-family="Roboto Condensed" font-size="14" lengthAdjust="spacingAndGlyphs" textLength="25" x="50.65" y="27.7852">User</text><line style="stroke: #A80036; stroke-width: 1.5;" x1="12" x2="88" y1="38" y2="38"/><text fill="#000000" font-family="Roboto Condensed" font-size="14" lengthAdjust="spacingAndGlyphs" textLength="37" x="17" y="54.9883">long id</text><text fill="#000000" font-family="Roboto Condensed" font-size="14" lengthAdjust="spacingAndGlyphs" textLength="66" x="17" y="71.3945">string name</text><line style="stroke: #A80036; stroke-width: 1.5;" x1="12" x2="88" y1="78.8125" y2="78.8125"/><!--MD5=[beda3184aa15b1b3c35e5c391843a5ed]
class Tweet--><rect fill="#FEFECE" height="95.2188" id="Tweet" style="stroke: #A80036; stroke-width: 1.5;" width="88" x="6" y="147"/><ellipse cx="30.8" cy="162" fill="#ADD1B2" rx="10" ry="10" style="stroke: #A80036; stroke-width: 1.0;"/><path d="M33.1896,166.7061 Q32.7111,166.9521 32.1848,167.0752 Q31.6584,167.1982 31.0773,167.1982 Q29.0129,167.1982 27.926,165.8379 Q26.8391,164.4775 26.8391,161.9072 Q26.8391,159.3301 27.926,157.9697 Q29.0129,156.6094 31.0773,156.6094 Q31.6584,156.6094 32.1916,156.7324 Q32.7248,156.8555 33.1896,157.1016 L33.1896,159.3438 Q32.6701,158.8652 32.1813,158.6431 Q31.6926,158.4209 31.173,158.4209 Q30.0656,158.4209 29.5017,159.2993 Q28.9377,160.1777 28.9377,161.9072 Q28.9377,163.6299 29.5017,164.5083 Q30.0656,165.3867 31.173,165.3867 Q31.6926,165.3867 32.1813,165.1646 Q32.6701,164.9424 33.1896,164.4639 Z "/><text fill="#000000" font-family="Roboto Condensed" font-size="14" lengthAdjust="spacingAndGlyphs" textLength="34" x="46.2" y="166.7852">Tweet</text><line style="stroke: #A80036; stroke-width: 1.5;" x1="7" x2="93" y1="177" y2="177"/><text fill="#000000" font-family="Roboto Condensed" font-size="14" lengthAdjust="spacingAndGlyphs" textLength="37" x="12" y="193.9883">long id</text><text fill="#000000" font-family="Roboto Condensed" font-size="14" lengthAdjust="spacingAndGlyphs" textLength="67" x="12" y="210.3945">long user_id</text><text fill="#000000" font-family="Roboto Condensed" font-size="14" lengthAdjust="spacingAndGlyphs" textLength="76" x="12" y="226.8008">string content</text><line style="stroke: #A80036; stroke-width: 1.5;" x1="7" x2="93" y1="234.2188" y2="234.2188"/><!--MD5=[bcd1d6acf2e730218b5b96e6f256ef1a]
reverse link User to Tweet--><path d="M50,100.74 C50,115.79 50,132.1 50,146.79 " fill="none" id="User&lt;-Tweet" style="stroke: #A80036; stroke-width: 1.0;"/><polygon fill="#A80036" points="50,87.36,46,93.36,50,99.36,54,93.36,50,87.36" style="stroke: #A80036; stroke-width: 1.0;"/><text fill="#000000" font-family="Roboto Condensed" font-size="14" lengthAdjust="spacingAndGlyphs" textLength="7" x="42.4641" y="107.7223">1</text><text fill="#000000" font-family="Roboto Condensed" font-size="14" lengthAdjust="spacingAndGlyphs" textLength="7" x="42.4859" y="135.6096">n</text><!--MD5=[c5e59d689002840e466dd15bf119016b]
@startuml
skinparam defaultFontName "Roboto Condensed"
skinparam defaultFontSize 14
skinparam shadowing false

class User {
  long id
  string name
}

class Tweet {
  long id
  long user_id
  string content
}

User "1" *- - "n" Tweet
@enduml

PlantUML version 1.2020.00(Sat Jan 11 07:30:53 EST 2020)
(GPL source distribution)
Java Runtime: OpenJDK Runtime Environment
JVM: OpenJDK 64-Bit Server VM
Java Version: 13.0.2+8
Operating System: Mac OS X
Default Encoding: UTF-8
Language: en
Country: CA
--></g></svg>